<svg data-v-70b83f88="" version="1.0" xmlns="http://www.w3.org/2000/svg" xmlns:xlink="http://www.w3.org/1999/xlink" width="100%" height="100%" viewBox="0 0 340.000000 250.000000" preserveAspectRatio="xMidYMid meet" color-interpolation-filters="sRGB" style="margin: auto;">   <g data-v-70b83f88="" fill="#E51714" class="j-b-g-c iconbgsvg" mask="url(#47e84e77-c0c1-4ae2-a00e-c32e4bb18de5)" transform="translate(45.5,2.3072662353515625)"><g data-d="container" transform="translate(0,0)"><g><rect fill="#E51714" fill-opacity="0" stroke-width="2" x="0" y="0" width="249.00000000000009" height="245.3854745000001" class="image-rect"></rect> <svg filter="url(#colors2606431431)" x="0" y="0" width="249.00000000000009" height="245.3854745000001" filtersec="colorsf6053257339" class="image-svg-container primary" style="overflow: visible;"><svg xmlns="http://www.w3.org/2000/svg" viewBox="0 0 891.97986 879.02991" style="overflow: visible;"><g transform="scale(1, 1) skewX(0)"><path d="M608 0h23c9.61.59 19.21 1.59 28.82 1.67 15.65.12 31.3 0 47-.47 24.46-.77 49-1.11 73.41.81 8.88.69 17.92-.06 26.69 1.21 12.71 1.85 25.27 4.14 38 .86.6-.15 1.31.23 2 .24 7 .18 13 2.81 19 6.54 3.59 2.25 5.63 4.3 5.4 8.47-.14 2.41.2 4.71 2.43 6.2 2.68 1.79 3.1 4.45 3.27 7.41.45 7.54-.34 14.65 4.1 22.29 4.32 7.44 2.8 17.67-.17 26.31-1.29 3.74-2.75 6.82-1.1 10.81s-1.69 6.17-4.12 8.28-4.4.08-6.54-1.38c-4.11-2.79-5.63-6.72-6.27-11.37-1.14-8.25-2.66-16.42-5.94-24.16-1.74-4.11-4.52-7.77-5.09-12.4-.46-3.67-3.19-5.29-6.49-6-3.5-.79-5.58 1.18-7.43 3.82-2.07 3-2.18 6.27-2 9.6a21.45 21.45 0 0 1-3.2 13.36 8.47 8.47 0 0 0-.82 7.18c2 7.48 3.15 15 .83 22.66a10.45 10.45 0 0 0 .47 6.4c2.15 6.39 1.31 12.73.65 19.26-.85 8.59-4.37 16.57-4.09 25.49.65 20.61.91 41.24.27 61.87-.22 7 .29 14 3.67 20.43 1.48 2.82.88 5.53-1.3 7.82-3.29 3.47-4 7.75-3.16 12.12a56.88 56.88 0 0 1 .74 15.89 17.17 17.17 0 0 0 1.09 8.35c.94 2.22.69 4.46.57 6.83-.32 6.47-2.47 13-1 19.35 1.19 5.08.74 9.76.15 14.76-.91 7.68-2.29 15.57 2.44 22.79 1.59 2.44 1.06 5.25-.39 7.63-2 3.21-2 6.61-1.63 10.14 1 9-.67 18.28 3.3 26.92.45 1 .08 2.31.23 3.46 1.55 12.34-1.78 24.57 0 37.1 1.59 11.1.31 22.6.36 33.93a14.55 14.55 0 0 1-2.46 7.95c-4.06 6.65-3.59 13.68-.42 20.39 1.39 2.92 2.15 5.47 1.08 8.52-2.79 8-2.53 16-.38 24.1 1.43 5.38 1.88 10.84-.93 16.07-2.68 5-2 9.72.33 14.79 3.59 7.68 4.81 15.54-.78 23.12-2.19 3-1.67 6 .92 8.57 2.43 2.45 3.14 5.35.86 8s-1.81 4.67-.3 7.21c1.59 2.71 2.57 5.66 0 8.29-3.82 3.87-3.33 7.68-.18 11.55 1.9 2.33 2.42 5 .77 7.4-4.1 6-3.91 12.51-2.66 19.23a23.32 23.32 0 0 1-.16 7.45c-1.19 8.6-2.23 17.21 2.36 25.31.62 1.1 1.15 2.76.77 3.83-2.34 6.67.54 13 .76 19.41.82 23.29.59 46.62 1.3 69.93.07 2.18-.26 4.52 1.36 6.18 3.26 3.35 3.4 7.6 3.29 11.69-.18 6.32-.56 12.6-.05 18.95.38 4.64-1.9 6.32-6.58 5.52-3.49-.59-7-1.09-10.43-.4a37 37 0 0 1-14.87.08 9.85 9.85 0 0 0-8.51 2c-2.31 1.95-4.22 2.2-6.61.25a7 7 0 0 0-3.65-1.44c-13.42-1-26.88-1.66-40.3-.8a85.57 85.57 0 0 1-21.34-1.06 100.17 100.17 0 0 0-36.7-.14 25.9 25.9 0 0 1-14.64-1.56c-3.72-1.55-6.93-2-10.28.61-2 1.54-4 1.62-6.42.19-4.52-2.67-10.1-.25-14.82-2.59-.36-.18-1.28.4-1.74.84-3.61 3.46-8 3.3-12.62 3.32-17.81.07-35.59-1.27-53.39-1.38-16.63-.11-33.26.92-49.9 1.32-3 .07-5.6.33-7.6 2.84-1.21 1.51-3.28 2.88-4.75 1.46-4.35-4.19-9.91-3-14.92-4.21a20.25 20.25 0 0 0-13.16 1.07c-3.25 1.36-6.15 1.85-9.56.44a9.37 9.37 0 0 0-9.13.79c-3.22 2.31-6.69 2.49-10.4 2.74-8.55.57-17-3.18-25.64-.21a4.3 4.3 0 0 1-3.34-.66c-3.33-2.33-6.49-1.81-9.85-.08a6.1 6.1 0 0 1-6.23-.08c-9.13-5.62-18.32-6.23-27.65-.5-1.79 1.09-3.81 1.06-5.81 1.13-19.6.72-39.23-.56-58.81 1.27a16.59 16.59 0 0 1-4.95-.44c-10.54-2.19-21.17-1.39-31.8-1.17-7.45.16-15.14 1-22.31-.43-8.22-1.7-16.53-1.4-24.72-2.23s-16.39-.09-24.55-1.54c-1.48-.27-3.34-.31-4.3.79-4.8 5.52-10.83 4-16.72 3.17-4.41-.63-9 1.53-13.26-1a17.25 17.25 0 0 0-10.61-2.11 50 50 0 0 1-13.91-.89c-2.24-.46-4.75-1.57-6.88-.53-7.47 3.68-15.77 1.77-23.71 4.31-15.11 4.83-30.86 7.85-47.12 7.07-7.56-.37-15.74-1.63-22.77 1.42a45.14 45.14 0 0 1-20.65 3.89c-6-.26-10.13 8.58-7 13.61 1.89 3.07 4.58 2.91 7.43 2.64 4.07-.38 8.16-.5 11.38 2.42 3.72 3.38 7.54 3.18 11.46.83 2.84-1.71 5.9-1.89 9-2.38 5.79-.9 9.57 3.19 14.31 4.91 15.63 5.67 31.72 6.25 48 3.57a19.23 19.23 0 0 1 4.92.3c5.52.45 11.62 2.17 16.48.47 9.49-3.3 19-4 28.8-5a188.3 188.3 0 0 1 27.39-.53c15.72.73 31.57.31 47.33 1 10 .42 20.18.61 30.08 3.37 6 1.66 12.64 4.32 17.92-2.24.57-.71 2.2-.86 3.3-.78 6 .47 12-.5 18-.41 38.65.63 77.15-2.41 115.71-4.36 31.19-1.58 62.46-.14 93.67-3.49 18.12-1.94 36.6-.5 54.92-.8 3.3-.06 6.23.24 9 2 4.56 2.93 9.16 2.85 13.45-.54 2.51-2 4.84-1.83 7.29-.1a11.7 11.7 0 0 0 8 2.29c5.46-.61 11-.84 16.42-1.22 6.87-.48 13.71-1.27 20.81-.07 7.86 1.33 16.2 2.54 24-1.36a7.81 7.81 0 0 1 8.12.63c3.08 2.07 6.42 2.4 10 2.47 6.73.13 13.53 1.95 20-1.6a5.94 5.94 0 0 1 3.94-.14c14.3 3.63 28.74-.17 43.08.88 3.81.28 7.51-1.58 11.4-.66 9.65 2.28 19.21-.12 28.62-1.39 10-1.33 19.47-3.93 29.77-1.45 9.65 2.32 18-6.21 16.61-16a13 13 0 0 1 .69-6.36 17.89 17.89 0 0 0 1.35-6.8c-.54-16.81-.67-33.63-1.64-50.41-.89-15.33 2.94-30.3 2.36-45.65-.63-16.73 1.63-33.49-.95-50.3-1.06-6.91-1.35-14.29.47-21.37a59.32 59.32 0 0 0 .82-23.35c-2.45-17.08-.16-34.07.07-51.1.13-8.83 1.48-17.56 2-26.32 1.09-19.08 2.15-38.17 1.42-57.33-.79-20.46.38-41-1-61.43-.28-4.17.44-8.34 3.87-11.47 2-1.86 3.18-4.84 1.72-6.79-4.35-5.78-4.45-11.37-.93-17.39a2.88 2.88 0 0 0 .12-1.48c-.72-13.18 3-26.06 2.34-39.32-.35-6.8-1.28-13.58-1.19-20.42.18-13.63-.68-27.24-.11-40.9.49-11.42-.47-22.91-.78-34.37-.45-17-.49-33.93-3-50.81-1-6.64-1.71-13.62 2.79-19.74 1.31-1.77 1-4.18.95-6.35-.34-18.31.77-36.65-.69-54.95a119.86 119.86 0 0 1-.13-12c0-1.68.67-3.38 2.56-3.92s4.46.1 4.82 1.65c1.25 5.45 4 10 6.88 14.66.38.62.09 1.64.12 2.47.23 7.65-.2 15.31.68 23a21.08 21.08 0 0 1-2.1 12.65c-6.31 11.7-1.22 22.72 3.38 32.92 2.09 4.62 4 8.63 4.12 13.72a82.86 82.86 0 0 1-1.51 17.85c-1 5.38-2.1 11.05-.74 16.35 1.63 6.39-.9 10.07-5.75 13.36-5.08 3.45-5.43 8.3-1 12.37 1.61 1.48 2.81 2.86 1.72 5.13-3.25 6.79.88 12.43 3.65 17.74 1.73 3.33 3.81 6.26 3.29 10-1 7.49 0 14.94 0 22.41.06 7.29 3.15 13.82 4.9 20.68V462c-3.11 3.4-5.45 7-4.7 12 1.62 10.79 4.58 21.52 1.7 32.56a4.59 4.59 0 0 0 .16 2.46c1.46 4.36.8 8.82 1 13.27.28 7.91 1.22 15.8 1.88 23.69v86c-3.27 7.37-3.66 15.18-2.85 23a275.37 275.37 0 0 1 1 29.84c0 4.79-.31 9.67 1.89 14.18v41c-1.48 1.82-1.46 3.86-1.35 6.11.34 7 1.56 14.15-.82 20.8a46.47 46.47 0 0 0-2.63 19.09c.63 9.26-.82 18.64 1.77 27.79a7.43 7.43 0 0 1-.23 4.42c-3.15 8.24-3.55 16.75-3 25.42a14 14 0 0 1-.89 4.85c-2 6.46-9.18 10-9.77 17.29 0 .37-.65.9-1.06 1-5 .93-8.8 5-13.66 5.65-5.91.77-10.62 3.54-15.36 6.61h-3c-2.2-1.86-4.88-2-7.54-1.91q-31.55.51-63.1 1.11a26.49 26.49 0 0 0-4.36.8H575c-8.89-5.2-18.43-2.57-27.74-2.19-7.52.3-15.19 2.71-22-2.74a3.83 3.83 0 0 0-4.69.07c-4.53 3.06-9.65 3.23-14.83 3.17A45.31 45.31 0 0 0 492 879h-6c-3.87-1.52-7.91-.7-11.87-.82-3.34-.11-6.74.16-9.86-1.18-4-1.7-8-1.83-12.23-1.78-23.24.27-46.39 2.81-69.69 2-12.28-.43-24.62.17-36.93.55-7 .21-14.58 1.81-21.29-2.86a7.48 7.48 0 0 0-8.55.41c-3.3 2.36-6.48 2.09-9.8.15-2-1.15-3.94-1.05-6.22-.51-8.4 2-17.14.19-25.6 2a1 1 0 0 1-.48-.12c-5.93-2.55-12.11-1.53-18.23-1.22-9 .45-18 .37-26.88 1.63-9 1.28-17.41-2.54-26.31-2.08-2.8.15-5.53-1.37-8.2 1-1.07.93-2.68.3-3.7-.59-3.88-3.36-8.32-2.63-12.83-2.13-6.43.7-13 2.09-19.32 1.55-13.11-1.13-26.23-1.12-39.33-1.73-4.77-.22-9.42.78-14.35.19-7.36-.88-14.85-1-22.29-1.63-10-.79-20 1.27-30.19-.92s-20.74-2.61-27.77-12.01c-1.12-1.49-3.36-2.1-5-3.22-2.95-2-3.88-4.49-1.68-7.62 3.77-5.37 4.62-10.5-.55-15.69-2.16-2.16-1-3.93 1.79-4.58.64-.15 1.34-.08 2-.26 1.88-.55 4.41-.76 4.08-3.45-.31-2.46-2.7-2.6-4.71-2.77-1.33-.11-2.67 0-4-.21a6.23 6.23 0 0 1-5.46-3.77c-1.1-2.54-.26-4.55 1.52-6.31 1.34-1.32 2.49-2.64 2.58-4.67.35-7.84-1.27-15.65.06-23.56.56-3.32-1.26-6.08-5.55-3.72-1.37.75-2.81 1.33-4-.21-1.06-1.34-.79-2.83-.2-4.27a11 11 0 0 1 3.53-4.12c2.09-1.74 2.73-3.42-.33-4.87-1.59-.72-3.32-1.6-2.72-3.6s2.51-1.81 4.19-1.57c3.53.49 4.89-1.36 5-4.57s-.08-6.71 1-9.91a81.58 81.58 0 0 0 4.16-26.21c0-3.41-.69-6.07-4.53-6.5-5.09-.58-5.72-3.45-4.63-7.79 3.33-13.26-.22-26.44-.79-39.65a3.28 3.28 0 0 0-.44-1.42 9 9 0 0 1-.23-9c1.18-2.47 1.54-5.48-.82-7.43-5.22-4.29-4.84-9-1.77-14.18 1.92-3.27 1.36-6-1.82-8.2a4.28 4.28 0 0 1-1.71-5.67C4.27 617 4 614 4 611c0-6-.34-12 3.9-17.12a5.26 5.26 0 0 0 .88-4.26c-1.76-5.74-.77-11.43.08-17.06 1-6.68-1-13.2-.62-19.74.28-5 .15-9.57-1.94-14.09-3.22-7.07-2.3-14.93-4.05-22.32C1.44 513.05 2 509.25 0 506v-38c3.16-2.46 4.15-5.69 4.1-9.65-.22-16.5-.37-33-.25-49.49 0-5.43-.75-11.07 1.66-16.27a9.93 9.93 0 0 0 .12-9.12c-1-1.93-1.53-4 .2-5.55 4.68-4.09 4.45-9.38 4-14.75-.33-4.25.08-8.28 2.54-12 1.84-2.78 1.57-5.67-.13-8.49-1.57-2.6-3.08-5.42-2.42-8.47A43.91 43.91 0 0 0 9.73 316c-1.48-7.2 3.17-12.72 5.37-18.78 1.46-4 6.43-2.52 10-2.15 3 .32 3.92 2.86 3.91 5.56 0 6.78 1 13.46.56 20.34-.79 12.78-.28 25.64-.19 38.47 0 3.78-.53 7.29-3 10.32-2.09 2.57-2.36 5 .37 7.42s3.16 5.41 1.67 8.61a9.73 9.73 0 0 0 .15 8.64c1.08 2.38 2.68 5 1.85 7.62-1.72 5.41 0 10.11 2 14.93C34.53 422 35 427 30.16 431a3.09 3.09 0 0 0-1.33 3.06c1.22 5.64 0 11.29 0 16.92 0 21.8 1.89 43.69-1.07 65.35-1.07 7.87-1.55 15.33.15 23a33.81 33.81 0 0 1 .51 6c.57 13.27.11 26.54.44 39.82.67 27.32.27 54.66.48 82 .06 7.47-.83 15.49 1.55 22.27 3.36 9.59 2.57 19.11 2.62 28.6.1 18.94 2.12 37.8 1.84 56.74a7.86 7.86 0 0 0 .69 3.39 28.15 28.15 0 0 1 3.25 13.94c-.12 2.15.73 4.15 3.23 4.28 2.26.12 3.26-1.64 3.37-3.6a10.81 10.81 0 0 1 4.11-7.68c4.8-4.27 6.65-9.52 6-16a47.16 47.16 0 0 1 3.9-24.38 5.93 5.93 0 0 0-.15-5.76c-2-3.37-1.81-7-1.42-10.66.81-7.79 1.31-15.61.1-23.42-1.55-10-3.87-19.66-2.57-30.37 1.76-14.38.09-29.19-.13-43.81-.12-8-2.13-16.3 3.44-23.52a3.32 3.32 0 0 0 .36-2.4 24.23 24.23 0 0 1 2-14.68c2.76-6 3.14-10.87.75-17.42-2.48-6.8-1.83-14.77-2.42-22.23a72.4 72.4 0 0 1 1.45-21.15c2.42-11.34 2.37-23.12-3.39-34a10.51 10.51 0 0 1-.81-7.79c1.11-4.13.55-8.2.28-12.38-.45-7.07-2.42-14.48 1-21.16a30.27 30.27 0 0 0 3.26-13.87c.21-8.57-1.41-17.35 2.92-25.49.57-1.07.34-2.63.29-3.95-.56-12.87-3.25-25.49-2.65-38.59.49-10.86-.74-21.9-.59-32.88.07-4.79-.67-9.72 3.58-13.48 1.12-1 .68-2.82.67-4.32v-20.43c0-2.45 1.15-4.39 2.64-6.3 3.59-4.61 4.26-12.75 1-17.38-3-4.21-3-8.26-1.18-12.71.9-2.17 2.24-4.73 1-6.73-4.65-7.69-2.14-15.86-2.27-23.88-.24-14.15-.7-28.3-1-42.45-.07-2.91-1.27-5.41-2.31-8.07a31.21 31.21 0 0 1-.12-23.66c1.43-3.5 2.12-7 .71-10.15-3.4-7.52-2.87-15.3-2.42-23.09.51-8.93 3.31-17.78 1.07-26.77-1.45-5.82-.72-11.59-.16-17.37s5.79-11.3 11.52-11.91c6.78-.71 13.61-1 20.42-1.4 2.24-.14 4.12.84 6.06 2 8.12 4.68 17.16 4.09 25 .94a47.06 47.06 0 0 1 16.42-3.76c27-1.17 54 .13 80.93-1.44 5.66-.33 11.17-.21 16.63-2.36 3.75-1.47 7.65-.7 11.49 1.39 7.39 4 15.57 1.8 23.44 2 .79 0 1.83-.9 2.38-1.65 2.12-2.93 5.05-3.57 8.38-3.4 23.28 1.19 46.52-.29 69.61-2.52 13.14-1.27 26.3-.12 39.34-2 2-.29 3.79.47 5.73 1.09 8.41 2.7 16 11.83 26 3.82a.82.82 0 0 1 .48-.11c11.15 0 22.17-3.38 33.34-1.88 12.58 1.7 25.21 1.12 37.81 1.59a42.2 42.2 0 0 0 5.48-.39c16.54-1.56 32.91-4.45 49.67-4.51 20.79-.07 41.62-.1 62.39-1.72 7-.54 14-1.23 20.93-.69 10.72.83 21.41-2.42 32.1.13 1.32.31 3-.28 4.37-.85 4.76-2 9.77-2.14 14.75-1.75a192.78 192.78 0 0 0 20.4.11c18.64-.53 37.36-1.35 55.93-.15 19.57 1.27 39.09-4.12 58.63.61 5.29 1.28 7.53-1.58 7.45-7.12A11.16 11.16 0 0 0 820.7 35c-3.47-.81-7-.47-10.44-.57-5.41-.15-11 .7-16-2.33-2-1.24-3.41-.08-4.84 1.19-2.85 2.53-6.4 3.1-9.17.81-3.89-3.23-8.14-3.31-12.66-3.22a378.28 378.28 0 0 1-62.19-3.68c-12.17-1.8-24.41-3.8-36.75-2.87-7.64.57-15.28.45-22.89.58-13.27.22-26.51.65-39.71 1.7-14.29 1.14-28.51.09-42.77 0-7-.05-14.45-3.18-20.7-.95-7.72 2.76-15.62.14-23.16 3.31-6.28 2.65-13.4-1.37-20.16.57-3.87 1.12-7.94.39-11.93.48-9.09.19-18.27-.68-27 3.43-3.87 1.83-8.33 2.69-12.08-1.13-1.37-1.39-3.34-1.42-5.19-1.4-7.51.08-14.95-1.31-22.41-1.41-24-.29-48-.15-71.93 0-3.57 0-7.35.54-10.4 3-1.9 1.54-3.95 1-6.16.57-6.36-1.08-12.79-2.79-19.16-2.61-9.32.25-18.63.89-28 .47a29.29 29.29 0 0 0-6.49.23 298.07 298.07 0 0 1-43.5 4.17c-8.29.24-16.59-.26-24.89-.19-4.29 0-8.77-.13-12.44 2.76-3 2.39-6.29 2.6-9.92 1.73-4-1-8.06-2.46-12.29-1.42-5.26 1.3-10.51 3.57-15.33-1.13-.36-.35-1.3-.2-1.95-.14-12.53 1.2-24.85-.05-37.23-2.26-4.39-.78-8.57-1.07-12.68-3.22-3.61-1.88-8.08-2-11.21 1.26a12.93 12.93 0 0 1-9.38 3.92c-8.15.3-16 3-24.15 3.11a76.42 76.42 0 0 0-16.34 2c-6 1.43-10 5-11.39 11.23-.58 2.62-1.2 5.3-3.33 7.12-3.15 2.69-3.43 6.13-3.42 9.95.05 15.81 4.39 31.21 3.78 47.18-.38 9.92.54 20-.11 29.93-.36 5.53-.61 10.86 1 16.3 1 3.3 1.64 7.62-1.23 9.95-4 3.21-3.88 6.85-3.55 11.1.29 3.81.12 7.66.17 11.49 0 2-.44 3.7-2.41 4.52a5.21 5.21 0 0 1-5.62-.85c-4.47-3.66-6.73-9-10-13.52-1.11-1.54-.34-3.3 1.11-4.42 2.25-1.74 2.58-4 2.52-6.68-.1-3.82 0-7.66.15-11.49s0-7.26-3.65-9.7c-2.19-1.44-2.07-3.91-1.76-6.36.48-3.86.46-7.7-2.36-10.87s-2.75-6.24-.87-9.69c1.72-3.16 2.06-6.57 2.07-10.14.08-14.81-4.05-29.04-6.36-43.54a14.09 14.09 0 0 1 1-8.81c1.81-3.54 2-7.27 2.26-11.13.48-7.67 1.5-15.39 5.49-22.08C13.79 26 15 19 23.34 18c9.39-1.14 18.58-3.77 28.19-3.07a18.53 18.53 0 0 0 8.3-1.46 23.48 23.48 0 0 1 9.8-1.63A89.45 89.45 0 0 0 90 9.77c6.71-1.33 13.12 4.93 19.82.34.58-.4 1.9.37 2.88.42 6.79.35 13.57.74 20.36.94 5.81.18 12-2.5 17.12 2.52.95.92 2.15.15 3.19-.51a22.41 22.41 0 0 1 21.93-1.2c6.26 3 12.46 2.93 18.77 3.74 3.4.43 6-.79 7.89-4 1.78-3 4.19-5.6 8.31-5.52 8.16.15 16.32.2 24.49.2 2.82 0 5.2.55 6.84 3.18 2 3.25 4.62 2.86 7.12.6 2-1.81 3.86-4 6.63-4.18 5.92-.3 11.86-1.3 17.85-.67 11.46 1.19 22.91-.27 34.37-.24 3.38 0 6.72-1.94 10.27-.64a10.52 10.52 0 0 0 10.78-1.84c2.68-2.09 6.07-3.28 8.77-1C342.83 6.58 349.1 5.32 355 4.8c12.72-1.12 25.64-.11 38.19-3.29 1.08-.28 2.32.14 3.48 0C405.42.8 414.3 1.84 423 0h85c2.08 1.48 3.79 4.33 6.88 2.71A19 19 0 0 1 526.55.9c7.12 1 14.09 3.54 21.16-.09.38-.19 1 0 1.48 0q27.45-.07 54.9-.19A24 24 0 0 0 608 0z" fill="#000000"></path></g></svg></svg> <defs><filter id="colors2606431431"><feColorMatrix type="matrix" values="0 0 0 0 0.89453125  0 0 0 0 0.08984375  0 0 0 0 0.078125  0 0 0 1 0" class="icon-fecolormatrix"></feColorMatrix></filter> <filter id="colorsf6053257339"><feColorMatrix type="matrix" values="0 0 0 0 0.99609375  0 0 0 0 0.99609375  0 0 0 0 0.99609375  0 0 0 1 0" class="icon-fecolormatrix"></feColorMatrix></filter> <filter id="colorsb4931280195"><feColorMatrix type="matrix" values="0 0 0 0 0  0 0 0 0 0  0 0 0 0 0  0 0 0 1 0" class="icon-fecolormatrix"></feColorMatrix></filter></defs></g></g> <g data-d="icon-text" hollow-target="textRect" transform="translate(39.41783142089844,47.55735778808594)"><!----> <g data-d="text"><g data-gra="path-name" fill-rule="" class="tp-name iconsvg-namesvg" transform="translate(0,0)"><g transform="scale(0.9000000000000001)"><g><path d="M66.82-19.77L66.82-19.77Q71.97-20.73 76.11-19.28 80.24-17.83 85.94-14.61L85.94-14.61Q89.7-11.17 91.2-8.06 92.71-4.94 92.17-0.86L92.17-0.86Q92.06 2.04 89.64 2.95 87.23 3.87 85.08 2.15L85.08 2.15Q83.36 0.11 82.02-1.07 80.67-2.26 79.28-4.3L79.28-4.3Q76.48-9.02 72.78-11.49 69.07-13.96 64.24-15.9L64.24-15.9Q61.55-17.4 63.22-18.32 64.88-19.23 66.82-19.77ZM32.87-15.04L49.41-25.57Q49.84-25.78 50.49-25.83 51.13-25.89 50.92-24.49L50.92-24.49Q50.49-23.2 50.17-22.5 49.84-21.81 48.77-20.84L48.77-20.84Q47.37-19.87 46.14-18.85 44.9-17.83 43.83-16.33L43.83-16.33Q43.29-15.58 43.4-15.25 43.51-14.93 44.47-14.61L44.47-14.61Q45.76-14.82 46.3-14.02 46.84-13.21 46.41-12.03L46.41-12.03Q44.79-9.67 43.4-7.3 42-4.94 39.96-2.58L39.96-2.58Q38.24-1.61 36.68-0.54 35.13 0.54 33.95 2.15L33.95 2.15Q31.15 4.4 28.57 2.36 26 0.32 25.78-3.01L25.78-3.01Q25.67-4.08 25.83-4.94 26-5.8 25.57-7.09L25.57-7.09Q24.92-9.24 25.89-10.26 26.86-11.28 28.57-12.68L28.57-12.68Q29.76-13.11 30.78-13.37 31.8-13.64 32.87-15.04L32.87-15.04ZM79.49-45.33L79.49-45.33 80.35-45.33Q83.47-46.08 86.04-45.28 88.62-44.47 92.17-43.18L92.17-43.18Q94.96-41.79 94.53-39.96 94.1-38.13 91.52-37.17L91.52-37.17Q88.84-36.74 86.74-36.85 84.65-36.95 82.29-36.74L82.29-36.74Q78.42-36.42 74.93-35.88 71.44-35.34 67.25-33.95L67.25-33.95Q64.88-33.73 62.47-33.46 60.05-33.19 57.58-32.23L57.58-32.23Q51.78-30.94 46.67-29.27 41.57-27.61 35.66-24.92L35.66-24.92Q32.55-24.06 29.81-23.26 27.07-22.45 23.85-21.27L23.85-21.27Q21.59-20.3 19.98-21.27 18.37-22.24 17.83-24.71L17.83-24.71Q17.29-26.75 17.08-28.47 16.87-30.19 15.68-32.23L15.68-32.23Q15.36-33.09 16.01-33.73 16.65-34.38 17.62-35.23L17.62-35.23Q19.12-36.31 20.2-36.36 21.27-36.42 22.13-34.8L22.13-34.8Q22.45-34.05 22.83-33.46 23.2-32.87 23.85-32.66L23.85-32.66Q26.96-33.73 29.59-34.48 32.23-35.23 35.45-35.66L35.45-35.66Q41.04-37.38 46.25-38.83 51.46-40.28 57.36-41.46L57.36-41.46Q63.16-42.75 68.32-43.83 73.48-44.9 79.49-45.33ZM47.27-68.75L47.27-68.75 48.77-69.61Q51.99-69.93 54.89-69.13 57.79-68.32 61.23-65.74L61.23-65.74Q63.06-64.99 64.18-64.08 65.31-63.16 66.39-61.23L66.39-61.23Q68-58.33 67.08-55.91 66.17-53.5 62.95-51.56L62.95-51.56Q61.88-50.92 61.07-50.49 60.26-50.06 59.08-49.84L59.08-49.84Q55.75-47.7 53.12-46.35 50.49-45.01 47.27-43.83L47.27-43.83Q44.58-42.43 42.27-41.09 39.96-39.75 37.38-39.1L37.38-39.1Q36.09-38.99 35.61-39.58 35.13-40.18 36.52-41.25L36.52-41.25Q40.28-44.37 43.94-47.21 47.59-50.06 51.13-53.93L51.13-53.93Q52.21-55.64 52.31-56.61 52.42-57.58 50.92-59.3L50.92-59.3Q48.88-61.55 47-64.4 45.12-67.25 47.27-68.75ZM156.62-11.39L156.62-11.39Q154.9-11.17 153.18-10.31 151.46-9.45 150.18-7.73L150.18-7.73Q149.32-7.3 149.58-7.04 149.85-6.77 150.39-6.45L150.39-6.45Q153.51-6.77 156.41-7.36 159.31-7.95 162.42-8.59L162.42-8.59Q163.6-10.31 160.7-11.01 157.8-11.71 156.62-11.39ZM168.87-71.33L168.87-71.33Q169.3-72.08 169.89-72.03 170.48-71.97 171.02-71.76L171.02-71.76Q171.88-71.44 172.95-71.44 174.02-71.44 175.1-71.11L175.1-71.11Q176.49-71.22 177.51-70.47 178.54-69.72 179.18-68.11L179.18-68.11Q181.44-65.21 180.79-62.14 180.15-59.08 176.82-56.93L176.82-56.93Q174.78-55.97 173-55.05 171.23-54.14 169.3-53.28L169.3-53.28Q168.22-52.85 168.38-52.31 168.54-51.78 169.73-51.56L169.73-51.56Q171.77-51.56 174.24-49.47 176.71-47.37 177.25-44.9L177.25-44.9Q177.57-44.26 178.05-43.51 178.54-42.75 179.39-42.54L179.39-42.54Q181.01-42.86 182.46-43.24 183.91-43.61 185.63-44.69L185.63-44.69Q186.48-45.12 187.18-45.17 187.88-45.22 188.85-45.76L188.85-45.76Q190.46-45.65 191.53-45.87 192.61-46.08 194.43-46.62L194.43-46.62Q196.58-45.76 198.52-45.06 200.45-44.37 202.81-43.83L202.81-43.83Q204.75-42.54 204.64-40.87 204.53-39.21 202.17-38.89L202.17-38.89Q196.69-37.81 191.86-36.63 187.02-35.45 181.54-33.95L181.54-33.95Q179.18-33.52 178.54-32.23 177.89-30.94 177.68-28.79L177.68-28.79Q176.92-24.92 176.12-21.32 175.31-17.72 173.59-13.54L173.59-13.54Q172.63-11.39 173.92-11.33 175.21-11.28 176.82-11.82L176.82-11.82Q178.11-12.57 178.86-12.73 179.61-12.89 180.68-12.68L180.68-12.68Q182.94-13.54 184.82-13.8 186.7-14.07 189.06-12.68L189.06-12.68Q191.64-12.14 193.68-10.74 195.72-9.35 197.66-6.45L197.66-6.45Q197.87-6.12 197.92-5.8 197.98-5.48 197.87-4.94L197.87-4.94Q196.69-4.4 196.1-3.54 195.51-2.69 194.43-1.93L194.43-1.93Q190.57-1.18 187.08-1.07 183.58-0.97 179.61-0.86L179.61-0.86Q179.18-1.07 178.91-0.81 178.64-0.54 178.32-0.43L178.32-0.43 176.17-0.21Q171.88-0.21 168.01 1.02 164.14 2.26 159.84 4.3L159.84 4.3Q155.22 5.91 151.14 5.26 147.06 4.62 142.87-0.64L142.87-0.64Q141.47-3.22 142.44-6.45 143.41-9.67 146.74-9.88L146.74-9.88 148.03-9.45Q152-10.63 155.49-13.8 158.98-16.97 160.06-21.05L160.06-21.05Q161.56-22.24 161.83-23.63 162.1-25.03 162.21-26.43L162.21-26.43Q161.88-27.5 161.46-27.66 161.03-27.82 160.06-27.5L160.06-27.5Q154.79-25.67 149.85-24.28 144.91-22.88 139.65-22.13L139.65-22.13Q135.46-21.59 132.88-22.72 130.3-23.85 126.97-27.5L126.97-27.5Q125.9-28.47 125.63-29.22 125.36-29.97 125.47-31.15L125.47-31.15Q126.87-32.98 129.07-33.62 131.27-34.27 132.99-32.87L132.99-32.87 136.43-31.15Q142.87-32.23 148.78-34.11 154.69-35.99 161.35-37.6L161.35-37.6Q162.64-38.24 162.64-38.83 162.64-39.42 161.99-40.39L161.99-40.39Q160.7-42.54 159.52-44.37 158.34-46.19 157.7-48.55L157.7-48.55Q157.59-49.31 157.1-49.58 156.62-49.84 156.19-49.84L156.19-49.84Q153.72-49.63 152.11-50.65 150.5-51.67 148.24-51.78L148.24-51.78Q146.09-52.53 145.72-54.52 145.34-56.5 146.52-58.22L146.52-58.22Q149.21-60.69 151.52-62.36 153.83-64.02 156.62-64.02L156.62-64.02Q159.63-64.56 163.44-66.17 167.26-67.78 168.87-71.33Z" transform="translate(-15.574433326721191, 72.03312683105469)"></path></g> <!----> <!----> <!----> <!----> <!----> <!----> <!----></g></g> <g data-gra="path-slogan" fill-rule="" class="tp-slogan iconsvg-slogansvg" fill="#E51714" transform="translate(-9.692314147949219,90.73207092285156)"><!----> <!----> <g transform="scale(1, 1)"><g transform="scale(5.599999999999997)"><path d="M8.09-7.29L8.09-7.29Q8.24-7.32 8.40-7.28Q8.55-7.24 8.74-7.13L8.74-7.13Q8.84-7.08 8.92-7.02Q9.01-6.96 9.14-6.84L9.14-6.84Q9.19-6.68 9.14-6.46Q9.09-6.23 9-6.05L9-6.05Q8.93-5.98 8.88-5.98Q8.82-5.99 8.77-6.02L8.77-6.02Q8.65-6.12 8.58-6.12Q8.51-6.12 8.44-6.16L8.44-6.16Q8.32-6.25 8.29-6.33Q8.25-6.41 8.20-6.49L8.20-6.49Q8.02-6.64 7.92-6.84Q7.83-7.03 7.88-7.17L7.88-7.17Q7.91-7.22 7.96-7.24Q8.02-7.25 8.09-7.29ZM6.23-7.50L6.23-7.50Q6.40-7.98 6.70-7.89Q7.01-7.80 7.05-7.38L7.05-7.38Q6.97-7.08 7.07-6.84Q7.17-6.61 7.27-6.28L7.27-6.28Q7.30-6.20 7.26-6.19Q7.22-6.19 7.15-6.23L7.15-6.23Q7.04-6.34 7.00-6.33Q6.96-6.32 6.94-6.21L6.94-6.21Q6.89-5.91 6.88-5.63Q6.88-5.36 6.82-5.02L6.82-5.02Q6.79-4.96 6.81-4.91Q6.84-4.86 6.94-4.85L6.94-4.85Q7.11-4.92 7.28-4.98Q7.44-5.04 7.64-5.13L7.64-5.13Q7.79-5.23 7.80-5.32Q7.82-5.41 7.71-5.53L7.71-5.53Q7.64-5.67 7.53-5.79Q7.42-5.91 7.41-6.05L7.41-6.05Q7.64-5.89 7.85-5.78Q8.05-5.67 8.30-5.51L8.30-5.51Q8.54-5.53 8.70-5.47Q8.85-5.40 9.12-5.18L9.12-5.18Q9.21-5.05 9.18-4.93Q9.15-4.82 9.05-4.69L9.05-4.69Q8.89-4.62 8.78-4.56Q8.67-4.50 8.53-4.36L8.53-4.36Q8.21-4.20 7.93-4.05Q7.64-3.90 7.31-3.75L7.31-3.75Q7.15-3.67 7.14-3.60Q7.13-3.53 7.22-3.38L7.22-3.38Q7.44-2.93 7.77-2.54Q8.10-2.14 8.58-1.71L8.58-1.71Q9.15-1.13 9.56-0.93Q9.97-0.73 10.55-0.54L10.55-0.54Q10.89-0.41 10.98-0.23Q11.07-0.05 11.06 0.26L11.06 0.26Q11.03 0.41 10.95 0.45Q10.88 0.49 10.76 0.49L10.76 0.49Q10.30 0.47 9.90 0.44Q9.50 0.41 9.07 0.35L9.07 0.35Q8.91 0.36 8.79 0.35Q8.68 0.33 8.53 0.23L8.53 0.23Q8.06-0.15 7.83-0.61Q7.61-1.07 7.29-1.52L7.29-1.52Q7.18-1.77 7.05-2.00Q6.91-2.23 6.68-2.44L6.68-2.44Q6.55-2.60 6.46-2.60Q6.38-2.60 6.35-2.41L6.35-2.41L6.12-1.55Q6.04-0.94 5.58-0.51Q5.12-0.08 4.52 0.16L4.52 0.16Q4.34 0.19 4.14 0.18Q3.94 0.16 3.73 0.16L3.73 0.16Q3.62 0.12 3.54 0.05Q3.47-0.02 3.38-0.02L3.38-0.02Q3.28 0.01 3.23 0.11Q3.18 0.20 3.14 0.30L3.14 0.30Q3.08 0.43 2.95 0.57Q2.82 0.70 2.67 0.68L2.67 0.68Q2.53 0.57 2.40 0.38Q2.27 0.19 2.25 0.05L2.25 0.05Q2.24-0.14 2.20-0.30Q2.16-0.47 2.11-0.66L2.11-0.66Q2.14-0.80 2.15-0.91Q2.16-1.03 2.16-1.20L2.16-1.20Q2.27-1.57 2.33-1.92Q2.38-2.26 2.32-2.65L2.32-2.65Q2.32-2.73 2.27-2.79Q2.23-2.85 2.16-2.77L2.16-2.77Q1.96-2.65 1.79-2.63Q1.63-2.60 1.45-2.74L1.45-2.74Q1.17-3 1.08-3.21Q1.00-3.41 1.01-3.66L1.01-3.66Q0.91-3.88 0.94-3.96Q0.96-4.04 1.15-4.24L1.15-4.24Q1.62-4.98 1.92-5.65Q2.23-6.32 2.65-7.08L2.65-7.08Q2.75-7.25 2.89-7.28Q3.04-7.31 3.16-7.20L3.16-7.20Q3.32-7.04 3.45-6.95Q3.59-6.86 3.66-6.61L3.66-6.61Q3.98-6.21 4.01-5.94Q4.03-5.67 3.73-5.20L3.73-5.20Q3.53-4.89 3.31-4.56Q3.09-4.24 2.98-3.89L2.98-3.89Q3.18-3.46 3.19-3.16Q3.21-2.87 3.19-2.44L3.19-2.44Q3.18-2.39 3.19-2.32Q3.21-2.25 3.28-2.25L3.28-2.25Q3.45-2.41 3.67-2.79Q3.90-3.16 3.98-2.98L3.98-2.98Q3.90-2.84 3.88-2.74Q3.86-2.65 3.84-2.48L3.84-2.48Q3.66-2.06 3.59-1.71Q3.53-1.35 3.54-0.87L3.54-0.87Q3.54-0.74 3.62-0.72Q3.69-0.70 3.80-0.73L3.80-0.73Q4.59-1.01 5.00-1.62Q5.40-2.23 5.51-2.95L5.51-2.95Q5.51-3.11 5.44-3.14Q5.38-3.18 5.27-3.19L5.27-3.19Q5.00-3.25 4.75-3.35Q4.50-3.46 4.22-3.61L4.22-3.61Q4.13-3.70 4.13-3.81Q4.13-3.91 4.24-3.94L4.24-3.94Q4.41-4.08 4.51-4.10Q4.62-4.13 4.80-4.13L4.80-4.13Q5.00-4.09 5.35-4.19Q5.70-4.29 5.81-4.52L5.81-4.52Q5.88-5.00 5.95-5.44Q6.02-5.88 6.09-6.38L6.09-6.38Q6.11-6.67 6.11-6.93Q6.12-7.20 6.23-7.50ZM19.22-1.15L19.34-1.17Q19.45-1.18 19.52-1.17Q19.59-1.16 19.71-1.10L19.71-1.10Q19.95-1.02 20.17-0.93Q20.39-0.84 20.65-0.77L20.65-0.77Q21.01-0.63 21.25-0.34Q21.48-0.05 21.54 0.30L21.54 0.30L21.68 1.01Q21.70 1.15 21.61 1.21Q21.52 1.27 21.38 1.22L21.38 1.22Q21 1.02 20.66 0.80Q20.32 0.59 20.02 0.21L20.02 0.21Q19.73-0.06 19.33-0.53Q18.93-1.01 19.22-1.15L19.22-1.15ZM17.70-3.19L17.67-3.28Q17.64-3.33 17.60-3.30Q17.57-3.28 17.51-3.26L17.51-3.26Q17.21-3.08 17.09-2.84Q16.97-2.60 16.99-2.34L16.99-2.34Q17.18-1.99 17.40-2.47Q17.63-2.95 17.70-3.19L17.70-3.19ZM19.59-4.05L19.50-4.03Q19.38-4.01 19.28-3.99Q19.17-3.97 19.08-3.89L19.08-3.89Q18.96-3.69 18.93-3.49Q18.89-3.28 18.84-3.05L18.84-3.05Q18.84-2.94 18.89-2.92Q18.94-2.91 19.03-2.95L19.03-2.95Q19.34-3.20 19.63-3.60Q19.92-4.00 19.59-4.05L19.59-4.05ZM16.57-7.85L16.57-7.85Q16.76-7.95 17.04-7.76Q17.32-7.58 17.39-7.29L17.39-7.29L17.39-7.05Q17.48-6.83 17.54-6.65Q17.59-6.47 17.60-6.21L17.60-6.21Q17.61-6.02 17.71-6.01Q17.80-6 17.95-6L17.95-6Q18.04-6.02 18.08-5.99Q18.12-5.95 18.07-5.84L18.07-5.84Q17.81-5.57 17.75-5.43Q17.68-5.29 17.67-4.97L17.67-4.97Q17.61-4.76 17.52-4.70Q17.43-4.64 17.25-4.73L17.25-4.73L16.76-5.09Q16.49-5.06 16.24-4.93Q15.98-4.80 15.70-4.66L15.70-4.66Q15.57-4.61 15.47-4.58Q15.36-4.55 15.23-4.57L15.23-4.57Q15.07-4.69 14.93-4.95Q14.79-5.21 14.81-5.39L14.81-5.39Q14.93-5.60 15.17-5.65Q15.41-5.70 15.61-5.58L15.61-5.58Q15.80-5.53 15.96-5.61Q16.13-5.70 16.05-5.91L16.05-5.91Q15.95-6.39 15.96-6.98Q15.97-7.58 16.57-7.85ZM19.10-6.26L19.10-6.26Q19.32-6.60 19.41-6.91Q19.50-7.23 19.62-7.57L19.62-7.57Q19.65-7.97 19.76-8.18Q19.88-8.39 20.34-8.46L20.34-8.46Q20.48-8.50 20.55-8.38Q20.61-8.26 20.63-8.11L20.63-8.11Q20.58-7.99 20.57-7.87Q20.55-7.75 20.55-7.59L20.55-7.59Q20.58-7.48 20.57-7.36Q20.55-7.24 20.63-7.13L20.63-7.13Q20.81-6.97 20.99-6.96Q21.16-6.94 21.38-6.87L21.38-6.87Q21.50-6.87 21.52-6.77Q21.54-6.68 21.45-6.54L21.45-6.54Q21.21-6.43 21-6.37Q20.79-6.30 20.55-6.21L20.55-6.21Q20.13-6.12 19.86-5.88Q19.59-5.64 19.34-5.20L19.34-5.20Q19.34-5.05 19.31-4.95Q19.28-4.84 19.24-4.66L19.24-4.66Q19.20-4.58 19.25-4.52Q19.30-4.46 19.41-4.50L19.41-4.50L19.85-4.57Q20.12-4.63 20.45-4.48Q20.78-4.32 20.81-3.96L20.81-3.96Q20.60-3.53 20.26-3.26Q19.91-3 19.52-2.74L19.52-2.74Q19.46-2.70 19.44-2.65Q19.42-2.60 19.52-2.58L19.52-2.58Q19.78-2.60 20.02-2.63Q20.26-2.65 20.53-2.79L20.53-2.79Q20.99-2.75 21.42-2.71Q21.84-2.67 22.34-2.60L22.34-2.60Q22.57-2.47 22.56-2.31Q22.55-2.14 22.31-2.11L22.31-2.11Q21.40-2.04 20.59-1.97Q19.78-1.90 18.87-1.76L18.87-1.76Q18.56-1.73 18.43-1.55Q18.29-1.37 18.19-1.10L18.19-1.10Q18.08-0.84 17.98-0.58Q17.88-0.32 17.70-0.05L17.70-0.05Q17.61 0.12 17.55 0.23Q17.48 0.35 17.32 0.47L17.32 0.47Q16.91 0.84 16.59 1.01Q16.27 1.18 15.87 1.27L15.87 1.27Q15.39 1.20 15.23 0.84Q15.08 0.48 15.56 0.26L15.56 0.26Q15.82 0.26 16.07 0.03Q16.32-0.20 16.48-0.47L16.48-0.47Q16.63-0.67 16.72-0.80Q16.80-0.94 16.85-1.13L16.85-1.13Q16.90-1.24 16.85-1.29Q16.79-1.34 16.71-1.29L16.71-1.29L16.66-1.29Q15.98-1.11 15.38-0.93Q14.78-0.74 14.11-0.45L14.11-0.45Q14.02-0.42 13.90-0.40Q13.79-0.39 13.71-0.40L13.71-0.40Q13.46-0.54 13.44-0.83Q13.41-1.11 13.62-1.29L13.62-1.29Q13.79-1.39 13.94-1.36Q14.09-1.32 14.27-1.29L14.27-1.29Q14.66-1.39 15-1.52Q15.34-1.65 15.75-1.76L15.75-1.76Q15.86-1.82 15.87-1.88Q15.88-1.93 15.84-2.04L15.84-2.04L15.75-2.53Q15.67-2.68 15.64-2.78Q15.62-2.88 15.75-3.02L15.75-3.02Q15.76-3.15 15.81-3.30Q15.87-3.46 15.98-3.52L15.98-3.52Q16.05-3.89 16.37-3.97Q16.69-4.05 16.97-4.13L16.97-4.13Q17.11-4.14 17.11-4.06Q17.11-3.98 17.02-3.87L17.02-3.87Q16.92-3.76 16.95-3.71Q16.98-3.66 17.09-3.68L17.09-3.68Q17.25-3.77 17.39-3.83Q17.53-3.88 17.70-3.91L17.70-3.91Q17.85-3.98 17.90-4.10Q17.95-4.22 17.95-4.34L17.95-4.34Q17.95-4.51 17.97-4.56Q17.99-4.62 18.09-4.76L18.09-4.76Q18.28-5.10 18.57-5.27Q18.87-5.44 18.91-5.79L18.91-5.79Q18.59-6.04 18.75-6.10Q18.91-6.16 19.10-6.26ZM32.65-1.83L32.65-1.83Q32.32-1.76 32.03-1.62Q31.75-1.49 31.41-1.34L31.41-1.34Q31.08-1.20 31.08-0.94Q31.09-0.68 31.05-0.42L31.05-0.42Q31.10-0.30 31.19-0.28Q31.28-0.25 31.36-0.26L31.36-0.26Q31.56-0.35 31.73-0.45Q31.90-0.54 32.11-0.68L32.11-0.68Q32.44-0.89 32.74-1.37Q33.04-1.84 32.65-1.83ZM27.77-2.13L27.77-2.13Q27.74-2.14 27.69-2.12Q27.64-2.10 27.59-2.06L27.59-2.06Q27.47-1.80 27.40-1.54Q27.34-1.28 27.28-1.01L27.28-1.01Q27.25-0.89 27.33-0.87Q27.41-0.84 27.52-0.89L27.52-0.89Q27.67-0.98 27.81-1.10Q27.95-1.21 28.10-1.36L28.10-1.36Q28.17-1.49 28.13-1.59Q28.09-1.69 27.94-1.76L27.94-1.76Q27.81-1.83 27.83-1.95Q27.84-2.06 27.77-2.13ZM28.24-3.30L28.24-3.30Q28.14-3.42 27.92-3.46Q27.70-3.49 27.59-3.33L27.59-3.33Q27.59-3.21 27.60-3.05Q27.62-2.88 27.70-2.74L27.70-2.74Q27.80-2.74 27.93-2.79Q28.05-2.85 28.15-2.98L28.15-2.98Q28.16-3.08 28.15-3.14Q28.15-3.20 28.24-3.30ZM28.50-4.34L28.50-4.34L28.41-4.31L27.54-3.96Q27.40-3.89 27.42-3.81Q27.43-3.73 27.56-3.70L27.56-3.70Q27.77-3.70 28.23-3.91Q28.69-4.11 28.50-4.34ZM32.84-4.57L32.84-4.57Q33.05-4.59 33.27-4.51Q33.49-4.42 33.68-4.22L33.68-4.22Q33.70-4.00 33.62-3.87Q33.54-3.74 33.42-3.49L33.42-3.49Q33.48-3.34 33.46-3.28Q33.45-3.22 33.28-3.12L33.28-3.12Q33.15-3.04 33.02-2.99Q32.89-2.95 32.77-2.91L32.77-2.91Q32.54-2.78 32.34-2.65Q32.14-2.52 31.90-2.41L31.90-2.41Q31.75-2.51 31.58-2.44Q31.42-2.37 31.27-2.25L31.27-2.25Q31.20-2.09 31.24-1.99Q31.29-1.89 31.50-1.95L31.50-1.95Q31.76-2.02 31.99-2.09Q32.23-2.17 32.51-2.32L32.51-2.32Q32.68-2.39 32.82-2.41Q32.95-2.44 33.14-2.39L33.14-2.39Q33.42-2.40 33.59-2.33Q33.75-2.25 34.08-1.95L34.08-1.95Q34.16-1.83 34.15-1.72Q34.14-1.62 34.10-1.50L34.10-1.50Q33.90-1.14 33.80-0.87Q33.69-0.61 33.89-0.19L33.89-0.19Q33.88 0.08 33.81 0.19Q33.74 0.29 33.42 0.30L33.42 0.30Q32.96 0.38 32.54 0.44Q32.11 0.50 31.64 0.63L31.64 0.63Q31.39 0.68 31.20 0.74Q31.00 0.81 30.77 1.01L30.77 1.01Q30.71 1.04 30.64 1.01Q30.57 0.98 30.54 0.89L30.54 0.89Q30.19 0.48 30.03 0.05Q29.87-0.38 30-0.82L30-0.82Q30.18-1.54 30.25-2.17Q30.33-2.80 30.56-3.52L30.56-3.52Q30.61-3.71 30.67-3.94Q30.73-4.17 30.89-4.36L30.89-4.36Q31.00-4.43 31.09-4.41Q31.18-4.38 31.31-4.43L31.31-4.43Q31.38-4.45 31.41-4.42Q31.44-4.39 31.41-4.31L31.41-4.31Q31.25-3.90 31.25-3.66Q31.25-3.42 31.31-3.02L31.31-3.02Q31.32-2.95 31.39-2.94Q31.46-2.92 31.52-2.98L31.52-2.98Q31.59-3.07 31.65-3.09Q31.70-3.11 31.80-3.12L31.80-3.12Q31.91-3.22 31.99-3.33Q32.07-3.43 32.25-3.56L32.25-3.56Q32.40-3.76 32.35-3.86Q32.30-3.95 32.09-4.05L32.09-4.05Q32.04-4.07 31.98-4.11Q31.92-4.15 31.92-4.20L31.92-4.20Q32.21-4.48 32.37-4.52Q32.53-4.56 32.84-4.57ZM27.68-5.34L27.68-5.34Q27.59-5.37 27.52-5.31Q27.45-5.25 27.40-5.16L27.40-5.16Q27.28-5.07 27.21-4.99Q27.14-4.90 27.14-4.80L27.14-4.80Q27.21-4.71 27.32-4.58Q27.43-4.45 27.54-4.38L27.54-4.38Q27.74-4.45 27.94-4.55Q28.14-4.65 28.36-4.78L28.36-4.78Q28.44-4.85 28.45-4.92Q28.46-4.99 28.43-5.09L28.43-5.09Q28.36-5.17 28.27-5.17Q28.17-5.17 28.10-5.18L28.10-5.18Q27.95-5.29 27.87-5.31Q27.80-5.34 27.68-5.34ZM27.28-7.80L27.28-7.85Q27.36-7.97 27.47-7.97Q27.59-7.98 27.70-7.92L27.70-7.92Q27.96-7.78 28.11-7.61Q28.27-7.44 28.43-7.17L28.43-7.17Q28.49-7.03 28.57-7.00Q28.65-6.96 28.78-6.96L28.78-6.96Q29.06-6.96 29.28-6.81Q29.50-6.66 29.79-6.40L29.79-6.40Q29.86-6.30 29.82-6.25Q29.79-6.19 29.70-6.14L29.70-6.14Q29.47-6.13 29.27-6.15Q29.06-6.16 28.85-6.28L28.85-6.28Q28.75-6.35 28.65-6.37Q28.55-6.39 28.43-6.38L28.43-6.38Q28.28-6.30 28.13-6.12Q27.98-5.93 27.89-5.79L27.89-5.79Q27.87-5.75 27.86-5.72Q27.86-5.70 27.89-5.65L27.89-5.65L28.17-5.70Q28.52-5.80 28.70-5.72Q28.88-5.64 29.16-5.30L29.16-5.30Q29.26-5.17 29.36-5.12Q29.46-5.07 29.58-5.23L29.58-5.23Q29.68-5.40 29.84-5.55Q29.99-5.70 30.02-5.88L30.02-5.88Q30.12-6.05 30.24-5.95Q30.36-5.86 30.40-5.72L30.40-5.72Q30.42-5.58 30.47-5.53Q30.52-5.48 30.70-5.53L30.70-5.53Q31.30-5.81 31.84-6.03Q32.38-6.25 33-6.45L33-6.45Q33.39-6.67 33.84-6.50Q34.29-6.33 34.71-5.95L34.71-5.95Q34.79-5.86 34.78-5.81Q34.76-5.75 34.66-5.70L34.66-5.70Q34.30-5.52 34.02-5.41Q33.74-5.30 33.42-5.20L33.42-5.20Q33.15-5.17 32.92-5.15Q32.68-5.13 32.41-5.06L32.41-5.06Q32.30-5.06 32.30-5.10Q32.30-5.14 32.37-5.18L32.37-5.18Q32.57-5.33 32.76-5.46Q32.95-5.59 33.14-5.79L33.14-5.79Q33.21-5.92 33.19-5.99Q33.16-6.06 33-6.07L33-6.07Q32.44-5.87 31.90-5.60Q31.37-5.32 30.77-4.80L30.77-4.80Q30.59-4.52 30.44-4.27Q30.29-4.01 30.09-3.70L30.09-3.70Q29.87-3.36 29.66-3.42Q29.45-3.47 29.25-3.75L29.25-3.75Q29.18-3.86 29.15-3.84Q29.12-3.83 29.09-3.73L29.09-3.73Q29.07-3.54 29.02-3.36Q28.96-3.19 28.99-2.98L28.99-2.98Q28.99-2.80 28.86-2.71Q28.73-2.61 28.57-2.53L28.57-2.53Q28.46-2.45 28.46-2.39Q28.45-2.33 28.57-2.32L28.57-2.32Q28.98-2.37 29.26-2.18Q29.54-1.99 29.79-1.55L29.79-1.55Q29.87-1.39 29.77-1.31Q29.67-1.23 29.51-1.22L29.51-1.22Q29.33-1.23 29.14-1.25Q28.96-1.28 28.78-1.22L28.78-1.22Q28.51-0.91 28.25-0.66Q28.00-0.40 27.68-0.12L27.68-0.12Q27.52-0.04 27.38 0.05Q27.25 0.14 27.09 0.30L27.09 0.30Q27 0.40 26.88 0.43Q26.77 0.47 26.65 0.47L26.65 0.47Q26.55 0.43 26.46 0.33Q26.37 0.22 26.27 0.12L26.27 0.12Q26.19-0.07 26.24-0.19Q26.29-0.32 26.32-0.49L26.32-0.49Q26.32-0.73 26.38-0.84Q26.45-0.96 26.72-1.17L26.72-1.17L26.88-1.48Q26.93-2.13 26.87-2.72Q26.80-3.32 26.65-3.98L26.65-3.98Q26.63-4.03 26.58-4.08Q26.54-4.14 26.51-4.13L26.51-4.13Q26.37-4.03 26.27-3.91Q26.17-3.79 26.04-3.63L26.04-3.63Q25.84-3.41 25.65-3.43Q25.45-3.46 25.36-3.70L25.36-3.70L25.27-4.08Q25.23-4.31 25.31-4.49Q25.38-4.68 25.45-4.90L25.45-4.90Q25.86-5.39 26.19-5.85Q26.52-6.32 26.84-6.84L26.84-6.84Q27.01-7.10 27.13-7.33Q27.25-7.56 27.28-7.80L27.28-7.80ZM31.10-8.16L31.10-8.16L31.31-8.25Q31.52-8.24 31.75-8.22Q31.98-8.20 32.20-8.09L32.20-8.09L32.84-7.36Q32.91-7.22 32.82-7.10Q32.73-6.98 32.58-6.89L32.58-6.89Q32.48-6.86 32.40-6.86Q32.31-6.86 32.23-6.84L32.23-6.84Q32.00-6.79 31.82-6.73Q31.64-6.67 31.45-6.68L31.45-6.68Q31.27-6.71 31.25-6.78Q31.24-6.84 31.36-6.98L31.36-6.98Q31.64-7.42 31.26-7.59Q30.88-7.77 31.10-8.16Z" transform="translate(-0.9328125, 8.46905048076923)"></path></g></g></g></g></g></g><defs><filter id="ed365c7b-07e2-40b8-8af5-d68c76924601">
          <feColorMatrix type="matrix" values="0 0 0 0 0  0 0 0 0 0  0 0 0 0 0  0 0 0 1 0"></feColorMatrix>
          </filter><filter id="da46e998-e6ac-4d30-ac37-cc02a4907745">
          <feColorMatrix type="matrix" values="0 0 0 0 0.99609375  0 0 0 0 0.99609375  0 0 0 0 0.99609375  0 0 0 1 0"></feColorMatrix>
          </filter></defs><mask id="47e84e77-c0c1-4ae2-a00e-c32e4bb18de5"><g data-v-70b83f88="" fill="#E51714" class="j-b-g-c iconbgsvg"><g data-d="container" transform="translate(0,0)"><g><rect fill="#E51714" fill-opacity="0" stroke-width="2" x="0" y="0" width="249.00000000000009" height="245.3854745000001" class="image-rect" stroke="#000"></rect> <svg filter="url(#da46e998-e6ac-4d30-ac37-cc02a4907745)" x="0" y="0" width="249.00000000000009" height="245.3854745000001" filtersec="colorsf6053257339" class="image-svg-container primary" style="overflow: visible;"><svg xmlns="http://www.w3.org/2000/svg" viewBox="0 0 891.97986 879.02991" style="overflow: visible;"><g transform="scale(1, 1) skewX(0)"><path d="M608 0h23c9.61.59 19.21 1.59 28.82 1.67 15.65.12 31.3 0 47-.47 24.46-.77 49-1.11 73.41.81 8.88.69 17.92-.06 26.69 1.21 12.71 1.85 25.27 4.14 38 .86.6-.15 1.31.23 2 .24 7 .18 13 2.81 19 6.54 3.59 2.25 5.63 4.3 5.4 8.47-.14 2.41.2 4.71 2.43 6.2 2.68 1.79 3.1 4.45 3.27 7.41.45 7.54-.34 14.65 4.1 22.29 4.32 7.44 2.8 17.67-.17 26.31-1.29 3.74-2.75 6.82-1.1 10.81s-1.69 6.17-4.12 8.28-4.4.08-6.54-1.38c-4.11-2.79-5.63-6.72-6.27-11.37-1.14-8.25-2.66-16.42-5.94-24.16-1.74-4.11-4.52-7.77-5.09-12.4-.46-3.67-3.19-5.29-6.49-6-3.5-.79-5.58 1.18-7.43 3.82-2.07 3-2.18 6.27-2 9.6a21.45 21.45 0 0 1-3.2 13.36 8.47 8.47 0 0 0-.82 7.18c2 7.48 3.15 15 .83 22.66a10.45 10.45 0 0 0 .47 6.4c2.15 6.39 1.31 12.73.65 19.26-.85 8.59-4.37 16.57-4.09 25.49.65 20.61.91 41.24.27 61.87-.22 7 .29 14 3.67 20.43 1.48 2.82.88 5.53-1.3 7.82-3.29 3.47-4 7.75-3.16 12.12a56.88 56.88 0 0 1 .74 15.89 17.17 17.17 0 0 0 1.09 8.35c.94 2.22.69 4.46.57 6.83-.32 6.47-2.47 13-1 19.35 1.19 5.08.74 9.76.15 14.76-.91 7.68-2.29 15.57 2.44 22.79 1.59 2.44 1.06 5.25-.39 7.63-2 3.21-2 6.61-1.63 10.14 1 9-.67 18.28 3.3 26.92.45 1 .08 2.31.23 3.46 1.55 12.34-1.78 24.57 0 37.1 1.59 11.1.31 22.6.36 33.93a14.55 14.55 0 0 1-2.46 7.95c-4.06 6.65-3.59 13.68-.42 20.39 1.39 2.92 2.15 5.47 1.08 8.52-2.79 8-2.53 16-.38 24.1 1.43 5.38 1.88 10.84-.93 16.07-2.68 5-2 9.72.33 14.79 3.59 7.68 4.81 15.54-.78 23.12-2.19 3-1.67 6 .92 8.57 2.43 2.45 3.14 5.35.86 8s-1.81 4.67-.3 7.21c1.59 2.71 2.57 5.66 0 8.29-3.82 3.87-3.33 7.68-.18 11.55 1.9 2.33 2.42 5 .77 7.4-4.1 6-3.91 12.51-2.66 19.23a23.32 23.32 0 0 1-.16 7.45c-1.19 8.6-2.23 17.21 2.36 25.31.62 1.1 1.15 2.76.77 3.83-2.34 6.67.54 13 .76 19.41.82 23.29.59 46.62 1.3 69.93.07 2.18-.26 4.52 1.36 6.18 3.26 3.35 3.4 7.6 3.29 11.69-.18 6.32-.56 12.6-.05 18.95.38 4.64-1.9 6.32-6.58 5.52-3.49-.59-7-1.09-10.43-.4a37 37 0 0 1-14.87.08 9.85 9.85 0 0 0-8.51 2c-2.31 1.95-4.22 2.2-6.61.25a7 7 0 0 0-3.65-1.44c-13.42-1-26.88-1.66-40.3-.8a85.57 85.57 0 0 1-21.34-1.06 100.17 100.17 0 0 0-36.7-.14 25.9 25.9 0 0 1-14.64-1.56c-3.72-1.55-6.93-2-10.28.61-2 1.54-4 1.62-6.42.19-4.52-2.67-10.1-.25-14.82-2.59-.36-.18-1.28.4-1.74.84-3.61 3.46-8 3.3-12.62 3.32-17.81.07-35.59-1.27-53.39-1.38-16.63-.11-33.26.92-49.9 1.32-3 .07-5.6.33-7.6 2.84-1.21 1.51-3.28 2.88-4.75 1.46-4.35-4.19-9.91-3-14.92-4.21a20.25 20.25 0 0 0-13.16 1.07c-3.25 1.36-6.15 1.85-9.56.44a9.37 9.37 0 0 0-9.13.79c-3.22 2.31-6.69 2.49-10.4 2.74-8.55.57-17-3.18-25.64-.21a4.3 4.3 0 0 1-3.34-.66c-3.33-2.33-6.49-1.81-9.85-.08a6.1 6.1 0 0 1-6.23-.08c-9.13-5.62-18.32-6.23-27.65-.5-1.79 1.09-3.81 1.06-5.81 1.13-19.6.72-39.23-.56-58.81 1.27a16.59 16.59 0 0 1-4.95-.44c-10.54-2.19-21.17-1.39-31.8-1.17-7.45.16-15.14 1-22.31-.43-8.22-1.7-16.53-1.4-24.72-2.23s-16.39-.09-24.55-1.54c-1.48-.27-3.34-.31-4.3.79-4.8 5.52-10.83 4-16.72 3.17-4.41-.63-9 1.53-13.26-1a17.25 17.25 0 0 0-10.61-2.11 50 50 0 0 1-13.91-.89c-2.24-.46-4.75-1.57-6.88-.53-7.47 3.68-15.77 1.77-23.71 4.31-15.11 4.83-30.86 7.85-47.12 7.07-7.56-.37-15.74-1.63-22.77 1.42a45.14 45.14 0 0 1-20.65 3.89c-6-.26-10.13 8.58-7 13.61 1.89 3.07 4.58 2.91 7.43 2.64 4.07-.38 8.16-.5 11.38 2.42 3.72 3.38 7.54 3.18 11.46.83 2.84-1.71 5.9-1.89 9-2.38 5.79-.9 9.57 3.19 14.31 4.91 15.63 5.67 31.72 6.25 48 3.57a19.23 19.23 0 0 1 4.92.3c5.52.45 11.62 2.17 16.48.47 9.49-3.3 19-4 28.8-5a188.3 188.3 0 0 1 27.39-.53c15.72.73 31.57.31 47.33 1 10 .42 20.18.61 30.08 3.37 6 1.66 12.64 4.32 17.92-2.24.57-.71 2.2-.86 3.3-.78 6 .47 12-.5 18-.41 38.65.63 77.15-2.41 115.71-4.36 31.19-1.58 62.46-.14 93.67-3.49 18.12-1.94 36.6-.5 54.92-.8 3.3-.06 6.23.24 9 2 4.56 2.93 9.16 2.85 13.45-.54 2.51-2 4.84-1.83 7.29-.1a11.7 11.7 0 0 0 8 2.29c5.46-.61 11-.84 16.42-1.22 6.87-.48 13.71-1.27 20.81-.07 7.86 1.33 16.2 2.54 24-1.36a7.81 7.81 0 0 1 8.12.63c3.08 2.07 6.42 2.4 10 2.47 6.73.13 13.53 1.95 20-1.6a5.94 5.94 0 0 1 3.94-.14c14.3 3.63 28.74-.17 43.08.88 3.81.28 7.51-1.58 11.4-.66 9.65 2.28 19.21-.12 28.62-1.39 10-1.33 19.47-3.93 29.77-1.45 9.65 2.32 18-6.21 16.61-16a13 13 0 0 1 .69-6.36 17.89 17.89 0 0 0 1.35-6.8c-.54-16.81-.67-33.63-1.64-50.41-.89-15.33 2.94-30.3 2.36-45.65-.63-16.73 1.63-33.49-.95-50.3-1.06-6.91-1.35-14.29.47-21.37a59.32 59.32 0 0 0 .82-23.35c-2.45-17.08-.16-34.07.07-51.1.13-8.83 1.48-17.56 2-26.32 1.09-19.08 2.15-38.17 1.42-57.33-.79-20.46.38-41-1-61.43-.28-4.17.44-8.34 3.87-11.47 2-1.86 3.18-4.84 1.72-6.79-4.35-5.78-4.45-11.37-.93-17.39a2.88 2.88 0 0 0 .12-1.48c-.72-13.18 3-26.06 2.34-39.32-.35-6.8-1.28-13.58-1.19-20.42.18-13.63-.68-27.24-.11-40.9.49-11.42-.47-22.91-.78-34.37-.45-17-.49-33.93-3-50.81-1-6.64-1.71-13.62 2.79-19.74 1.31-1.77 1-4.18.95-6.35-.34-18.31.77-36.65-.69-54.95a119.86 119.86 0 0 1-.13-12c0-1.68.67-3.38 2.56-3.92s4.46.1 4.82 1.65c1.25 5.45 4 10 6.88 14.66.38.62.09 1.64.12 2.47.23 7.65-.2 15.31.68 23a21.08 21.08 0 0 1-2.1 12.65c-6.31 11.7-1.22 22.72 3.38 32.92 2.09 4.62 4 8.63 4.12 13.72a82.86 82.86 0 0 1-1.51 17.85c-1 5.38-2.1 11.05-.74 16.35 1.63 6.39-.9 10.07-5.75 13.36-5.08 3.45-5.43 8.3-1 12.37 1.61 1.48 2.81 2.86 1.72 5.13-3.25 6.79.88 12.43 3.65 17.74 1.73 3.33 3.81 6.26 3.29 10-1 7.49 0 14.94 0 22.41.06 7.29 3.15 13.82 4.9 20.68V462c-3.11 3.4-5.45 7-4.7 12 1.62 10.79 4.58 21.52 1.7 32.56a4.59 4.59 0 0 0 .16 2.46c1.46 4.36.8 8.82 1 13.27.28 7.91 1.22 15.8 1.88 23.69v86c-3.27 7.37-3.66 15.18-2.85 23a275.37 275.37 0 0 1 1 29.84c0 4.79-.31 9.67 1.89 14.18v41c-1.48 1.82-1.46 3.86-1.35 6.11.34 7 1.56 14.15-.82 20.8a46.47 46.47 0 0 0-2.63 19.09c.63 9.26-.82 18.64 1.77 27.79a7.43 7.43 0 0 1-.23 4.42c-3.15 8.24-3.55 16.75-3 25.42a14 14 0 0 1-.89 4.85c-2 6.46-9.18 10-9.77 17.29 0 .37-.65.9-1.06 1-5 .93-8.8 5-13.66 5.65-5.91.77-10.62 3.54-15.36 6.61h-3c-2.2-1.86-4.88-2-7.54-1.91q-31.55.51-63.1 1.11a26.49 26.49 0 0 0-4.36.8H575c-8.89-5.2-18.43-2.57-27.74-2.19-7.52.3-15.19 2.71-22-2.74a3.83 3.83 0 0 0-4.69.07c-4.53 3.06-9.65 3.23-14.83 3.17A45.31 45.31 0 0 0 492 879h-6c-3.87-1.52-7.91-.7-11.87-.82-3.34-.11-6.74.16-9.86-1.18-4-1.7-8-1.83-12.23-1.78-23.24.27-46.39 2.81-69.69 2-12.28-.43-24.62.17-36.93.55-7 .21-14.58 1.81-21.29-2.86a7.48 7.48 0 0 0-8.55.41c-3.3 2.36-6.48 2.09-9.8.15-2-1.15-3.94-1.05-6.22-.51-8.4 2-17.14.19-25.6 2a1 1 0 0 1-.48-.12c-5.93-2.55-12.11-1.53-18.23-1.22-9 .45-18 .37-26.88 1.63-9 1.28-17.41-2.54-26.31-2.08-2.8.15-5.53-1.37-8.2 1-1.07.93-2.68.3-3.7-.59-3.88-3.36-8.32-2.63-12.83-2.13-6.43.7-13 2.09-19.32 1.55-13.11-1.13-26.23-1.12-39.33-1.73-4.77-.22-9.42.78-14.35.19-7.36-.88-14.85-1-22.29-1.63-10-.79-20 1.27-30.19-.92s-20.74-2.61-27.77-12.01c-1.12-1.49-3.36-2.1-5-3.22-2.95-2-3.88-4.49-1.68-7.62 3.77-5.37 4.62-10.5-.55-15.69-2.16-2.16-1-3.93 1.79-4.58.64-.15 1.34-.08 2-.26 1.88-.55 4.41-.76 4.08-3.45-.31-2.46-2.7-2.6-4.71-2.77-1.33-.11-2.67 0-4-.21a6.23 6.23 0 0 1-5.46-3.77c-1.1-2.54-.26-4.55 1.52-6.31 1.34-1.32 2.49-2.64 2.58-4.67.35-7.84-1.27-15.65.06-23.56.56-3.32-1.26-6.08-5.55-3.72-1.37.75-2.81 1.33-4-.21-1.06-1.34-.79-2.83-.2-4.27a11 11 0 0 1 3.53-4.12c2.09-1.74 2.73-3.42-.33-4.87-1.59-.72-3.32-1.6-2.72-3.6s2.51-1.81 4.19-1.57c3.53.49 4.89-1.36 5-4.57s-.08-6.71 1-9.91a81.58 81.58 0 0 0 4.16-26.21c0-3.41-.69-6.07-4.53-6.5-5.09-.58-5.72-3.45-4.63-7.79 3.33-13.26-.22-26.44-.79-39.65a3.28 3.28 0 0 0-.44-1.42 9 9 0 0 1-.23-9c1.18-2.47 1.54-5.48-.82-7.43-5.22-4.29-4.84-9-1.77-14.18 1.92-3.27 1.36-6-1.82-8.2a4.28 4.28 0 0 1-1.71-5.67C4.27 617 4 614 4 611c0-6-.34-12 3.9-17.12a5.26 5.26 0 0 0 .88-4.26c-1.76-5.74-.77-11.43.08-17.06 1-6.68-1-13.2-.62-19.74.28-5 .15-9.57-1.94-14.09-3.22-7.07-2.3-14.93-4.05-22.32C1.44 513.05 2 509.25 0 506v-38c3.16-2.46 4.15-5.69 4.1-9.65-.22-16.5-.37-33-.25-49.49 0-5.43-.75-11.07 1.66-16.27a9.93 9.93 0 0 0 .12-9.12c-1-1.93-1.53-4 .2-5.55 4.68-4.09 4.45-9.38 4-14.75-.33-4.25.08-8.28 2.54-12 1.84-2.78 1.57-5.67-.13-8.49-1.57-2.6-3.08-5.42-2.42-8.47A43.91 43.91 0 0 0 9.73 316c-1.48-7.2 3.17-12.72 5.37-18.78 1.46-4 6.43-2.52 10-2.15 3 .32 3.92 2.86 3.91 5.56 0 6.78 1 13.46.56 20.34-.79 12.78-.28 25.64-.19 38.47 0 3.78-.53 7.29-3 10.32-2.09 2.57-2.36 5 .37 7.42s3.16 5.41 1.67 8.61a9.73 9.73 0 0 0 .15 8.64c1.08 2.38 2.68 5 1.85 7.62-1.72 5.41 0 10.11 2 14.93C34.53 422 35 427 30.16 431a3.09 3.09 0 0 0-1.33 3.06c1.22 5.64 0 11.29 0 16.92 0 21.8 1.89 43.69-1.07 65.35-1.07 7.87-1.55 15.33.15 23a33.81 33.81 0 0 1 .51 6c.57 13.27.11 26.54.44 39.82.67 27.32.27 54.66.48 82 .06 7.47-.83 15.49 1.55 22.27 3.36 9.59 2.57 19.11 2.62 28.6.1 18.94 2.12 37.8 1.84 56.74a7.86 7.86 0 0 0 .69 3.39 28.15 28.15 0 0 1 3.25 13.94c-.12 2.15.73 4.15 3.23 4.28 2.26.12 3.26-1.64 3.37-3.6a10.81 10.81 0 0 1 4.11-7.68c4.8-4.27 6.65-9.52 6-16a47.16 47.16 0 0 1 3.9-24.38 5.93 5.93 0 0 0-.15-5.76c-2-3.37-1.81-7-1.42-10.66.81-7.79 1.31-15.61.1-23.42-1.55-10-3.87-19.66-2.57-30.37 1.76-14.38.09-29.19-.13-43.81-.12-8-2.13-16.3 3.44-23.52a3.32 3.32 0 0 0 .36-2.4 24.23 24.23 0 0 1 2-14.68c2.76-6 3.14-10.87.75-17.42-2.48-6.8-1.83-14.77-2.42-22.23a72.4 72.4 0 0 1 1.45-21.15c2.42-11.34 2.37-23.12-3.39-34a10.51 10.51 0 0 1-.81-7.79c1.11-4.13.55-8.2.28-12.38-.45-7.07-2.42-14.48 1-21.16a30.27 30.27 0 0 0 3.26-13.87c.21-8.57-1.41-17.35 2.92-25.49.57-1.07.34-2.63.29-3.95-.56-12.87-3.25-25.49-2.65-38.59.49-10.86-.74-21.9-.59-32.88.07-4.79-.67-9.72 3.58-13.48 1.12-1 .68-2.82.67-4.32v-20.43c0-2.45 1.15-4.39 2.64-6.3 3.59-4.61 4.26-12.75 1-17.38-3-4.21-3-8.26-1.18-12.71.9-2.17 2.24-4.73 1-6.73-4.65-7.69-2.14-15.86-2.27-23.88-.24-14.15-.7-28.3-1-42.45-.07-2.91-1.27-5.41-2.31-8.07a31.21 31.21 0 0 1-.12-23.66c1.43-3.5 2.12-7 .71-10.15-3.4-7.52-2.87-15.3-2.42-23.09.51-8.93 3.31-17.78 1.07-26.77-1.45-5.82-.72-11.59-.16-17.37s5.79-11.3 11.52-11.91c6.78-.71 13.61-1 20.42-1.4 2.24-.14 4.12.84 6.06 2 8.12 4.68 17.16 4.09 25 .94a47.06 47.06 0 0 1 16.42-3.76c27-1.17 54 .13 80.93-1.44 5.66-.33 11.17-.21 16.63-2.36 3.75-1.47 7.65-.7 11.49 1.39 7.39 4 15.57 1.8 23.44 2 .79 0 1.83-.9 2.38-1.65 2.12-2.93 5.05-3.57 8.38-3.4 23.28 1.19 46.52-.29 69.61-2.52 13.14-1.27 26.3-.12 39.34-2 2-.29 3.79.47 5.73 1.09 8.41 2.7 16 11.83 26 3.82a.82.82 0 0 1 .48-.11c11.15 0 22.17-3.38 33.34-1.88 12.58 1.7 25.21 1.12 37.81 1.59a42.2 42.2 0 0 0 5.48-.39c16.54-1.56 32.91-4.45 49.67-4.51 20.79-.07 41.62-.1 62.39-1.72 7-.54 14-1.23 20.93-.69 10.72.83 21.41-2.42 32.1.13 1.32.31 3-.28 4.37-.85 4.76-2 9.77-2.14 14.75-1.75a192.78 192.78 0 0 0 20.4.11c18.64-.53 37.36-1.35 55.93-.15 19.57 1.27 39.09-4.12 58.63.61 5.29 1.28 7.53-1.58 7.45-7.12A11.16 11.16 0 0 0 820.7 35c-3.47-.81-7-.47-10.44-.57-5.41-.15-11 .7-16-2.33-2-1.24-3.41-.08-4.84 1.19-2.85 2.53-6.4 3.1-9.17.81-3.89-3.23-8.14-3.31-12.66-3.22a378.28 378.28 0 0 1-62.19-3.68c-12.17-1.8-24.41-3.8-36.75-2.87-7.64.57-15.28.45-22.89.58-13.27.22-26.51.65-39.71 1.7-14.29 1.14-28.51.09-42.77 0-7-.05-14.45-3.18-20.7-.95-7.72 2.76-15.62.14-23.16 3.31-6.28 2.65-13.4-1.37-20.16.57-3.87 1.12-7.94.39-11.93.48-9.09.19-18.27-.68-27 3.43-3.87 1.83-8.33 2.69-12.08-1.13-1.37-1.39-3.34-1.42-5.19-1.4-7.51.08-14.95-1.31-22.41-1.41-24-.29-48-.15-71.93 0-3.57 0-7.35.54-10.4 3-1.9 1.54-3.95 1-6.16.57-6.36-1.08-12.79-2.79-19.16-2.61-9.32.25-18.63.89-28 .47a29.29 29.29 0 0 0-6.49.23 298.07 298.07 0 0 1-43.5 4.17c-8.29.24-16.59-.26-24.89-.19-4.29 0-8.77-.13-12.44 2.76-3 2.39-6.29 2.6-9.92 1.73-4-1-8.06-2.46-12.29-1.42-5.26 1.3-10.51 3.57-15.33-1.13-.36-.35-1.3-.2-1.95-.14-12.53 1.2-24.85-.05-37.23-2.26-4.39-.78-8.57-1.07-12.68-3.22-3.61-1.88-8.08-2-11.21 1.26a12.93 12.93 0 0 1-9.38 3.92c-8.15.3-16 3-24.15 3.11a76.42 76.42 0 0 0-16.34 2c-6 1.43-10 5-11.39 11.23-.58 2.62-1.2 5.3-3.33 7.12-3.15 2.69-3.43 6.13-3.42 9.95.05 15.81 4.39 31.21 3.78 47.18-.38 9.92.54 20-.11 29.93-.36 5.53-.61 10.86 1 16.3 1 3.3 1.64 7.62-1.23 9.95-4 3.21-3.88 6.85-3.55 11.1.29 3.81.12 7.66.17 11.49 0 2-.44 3.7-2.41 4.52a5.21 5.21 0 0 1-5.62-.85c-4.47-3.66-6.73-9-10-13.52-1.11-1.54-.34-3.3 1.11-4.42 2.25-1.74 2.58-4 2.52-6.68-.1-3.82 0-7.66.15-11.49s0-7.26-3.65-9.7c-2.19-1.44-2.07-3.91-1.76-6.36.48-3.86.46-7.7-2.36-10.87s-2.75-6.24-.87-9.69c1.72-3.16 2.06-6.57 2.07-10.14.08-14.81-4.05-29.04-6.36-43.54a14.09 14.09 0 0 1 1-8.81c1.81-3.54 2-7.27 2.26-11.13.48-7.67 1.5-15.39 5.49-22.08C13.79 26 15 19 23.34 18c9.39-1.14 18.58-3.77 28.19-3.07a18.53 18.53 0 0 0 8.3-1.46 23.48 23.48 0 0 1 9.8-1.63A89.45 89.45 0 0 0 90 9.77c6.71-1.33 13.12 4.93 19.82.34.58-.4 1.9.37 2.88.42 6.79.35 13.57.74 20.36.94 5.81.18 12-2.5 17.12 2.52.95.92 2.15.15 3.19-.51a22.41 22.41 0 0 1 21.93-1.2c6.26 3 12.46 2.93 18.77 3.74 3.4.43 6-.79 7.89-4 1.78-3 4.19-5.6 8.31-5.52 8.16.15 16.32.2 24.49.2 2.82 0 5.2.55 6.84 3.18 2 3.25 4.62 2.86 7.12.6 2-1.81 3.86-4 6.63-4.18 5.92-.3 11.86-1.3 17.85-.67 11.46 1.19 22.91-.27 34.37-.24 3.38 0 6.72-1.94 10.27-.64a10.52 10.52 0 0 0 10.78-1.84c2.68-2.09 6.07-3.28 8.77-1C342.83 6.58 349.1 5.32 355 4.8c12.72-1.12 25.64-.11 38.19-3.29 1.08-.28 2.32.14 3.48 0C405.42.8 414.3 1.84 423 0h85c2.08 1.48 3.79 4.33 6.88 2.71A19 19 0 0 1 526.55.9c7.12 1 14.09 3.54 21.16-.09.38-.19 1 0 1.48 0q27.45-.07 54.9-.19A24 24 0 0 0 608 0z" fill="#000000"></path></g></svg></svg> <defs><filter id="colors2606431431"><feColorMatrix type="matrix" values="0 0 0 0 0.89453125  0 0 0 0 0.08984375  0 0 0 0 0.078125  0 0 0 1 0" class="icon-fecolormatrix"></feColorMatrix></filter> <filter id="colorsf6053257339"><feColorMatrix type="matrix" values="0 0 0 0 0.99609375  0 0 0 0 0.99609375  0 0 0 0 0.99609375  0 0 0 1 0" class="icon-fecolormatrix"></feColorMatrix></filter> <filter id="colorsb4931280195"><feColorMatrix type="matrix" values="0 0 0 0 0  0 0 0 0 0  0 0 0 0 0  0 0 0 1 0" class="icon-fecolormatrix"></feColorMatrix></filter></defs></g></g> <g data-d="icon-text" hollow-target="textRect" transform="translate(39.41783142089844,47.55735778808594)" filter="url(#ed365c7b-07e2-40b8-8af5-d68c76924601)"><!----> <g data-d="text"><g data-gra="path-name" fill-rule="" class="tp-name iconsvg-namesvg" transform="translate(0,0)"><g transform="scale(0.9000000000000001)"><g><path d="M66.82-19.77L66.82-19.77Q71.97-20.73 76.11-19.28 80.24-17.83 85.94-14.61L85.94-14.61Q89.7-11.17 91.2-8.06 92.71-4.94 92.17-0.86L92.17-0.86Q92.06 2.04 89.64 2.95 87.23 3.87 85.08 2.15L85.08 2.15Q83.36 0.11 82.02-1.07 80.67-2.26 79.28-4.3L79.28-4.3Q76.48-9.02 72.78-11.49 69.07-13.96 64.24-15.9L64.24-15.9Q61.55-17.4 63.22-18.32 64.88-19.23 66.82-19.77ZM32.87-15.04L49.41-25.57Q49.84-25.78 50.49-25.83 51.13-25.89 50.92-24.49L50.92-24.49Q50.49-23.2 50.17-22.5 49.84-21.81 48.77-20.84L48.77-20.84Q47.37-19.87 46.14-18.85 44.9-17.83 43.83-16.33L43.83-16.33Q43.29-15.58 43.4-15.25 43.51-14.93 44.47-14.61L44.47-14.61Q45.76-14.82 46.3-14.02 46.84-13.21 46.41-12.03L46.41-12.03Q44.79-9.67 43.4-7.3 42-4.94 39.96-2.58L39.96-2.58Q38.24-1.61 36.68-0.54 35.13 0.54 33.95 2.15L33.95 2.15Q31.15 4.4 28.57 2.36 26 0.32 25.78-3.01L25.78-3.01Q25.67-4.08 25.83-4.94 26-5.8 25.57-7.09L25.57-7.09Q24.92-9.24 25.89-10.26 26.86-11.28 28.57-12.68L28.57-12.68Q29.76-13.11 30.78-13.37 31.8-13.64 32.87-15.04L32.87-15.04ZM79.49-45.33L79.49-45.33 80.35-45.33Q83.47-46.08 86.04-45.28 88.62-44.47 92.17-43.18L92.17-43.18Q94.96-41.79 94.53-39.96 94.1-38.13 91.52-37.17L91.52-37.17Q88.84-36.74 86.74-36.85 84.65-36.95 82.29-36.74L82.29-36.74Q78.42-36.42 74.93-35.88 71.44-35.34 67.25-33.95L67.25-33.95Q64.88-33.73 62.47-33.46 60.05-33.19 57.58-32.23L57.58-32.23Q51.78-30.94 46.67-29.27 41.57-27.61 35.66-24.92L35.66-24.92Q32.55-24.06 29.81-23.26 27.07-22.45 23.85-21.27L23.85-21.27Q21.59-20.3 19.98-21.27 18.37-22.24 17.83-24.71L17.83-24.71Q17.29-26.75 17.08-28.47 16.87-30.19 15.68-32.23L15.68-32.23Q15.36-33.09 16.01-33.73 16.65-34.38 17.62-35.23L17.62-35.23Q19.12-36.31 20.2-36.36 21.27-36.42 22.13-34.8L22.13-34.8Q22.45-34.05 22.83-33.46 23.2-32.87 23.85-32.66L23.85-32.66Q26.96-33.73 29.59-34.48 32.23-35.23 35.45-35.66L35.45-35.66Q41.04-37.38 46.25-38.83 51.46-40.28 57.36-41.46L57.36-41.46Q63.16-42.75 68.32-43.83 73.48-44.9 79.49-45.33ZM47.27-68.75L47.27-68.75 48.77-69.61Q51.99-69.93 54.89-69.13 57.79-68.32 61.23-65.74L61.23-65.74Q63.06-64.99 64.18-64.08 65.31-63.16 66.39-61.23L66.39-61.23Q68-58.33 67.08-55.91 66.17-53.5 62.95-51.56L62.95-51.56Q61.88-50.92 61.07-50.49 60.26-50.06 59.08-49.84L59.08-49.84Q55.75-47.7 53.12-46.35 50.49-45.01 47.27-43.83L47.27-43.83Q44.58-42.43 42.27-41.09 39.96-39.75 37.38-39.1L37.38-39.1Q36.09-38.99 35.61-39.58 35.13-40.18 36.52-41.25L36.52-41.25Q40.28-44.37 43.94-47.21 47.59-50.06 51.13-53.93L51.13-53.93Q52.21-55.64 52.31-56.61 52.42-57.58 50.92-59.3L50.92-59.3Q48.88-61.55 47-64.4 45.12-67.25 47.27-68.75ZM156.62-11.39L156.62-11.39Q154.9-11.17 153.18-10.31 151.46-9.45 150.18-7.73L150.18-7.73Q149.32-7.3 149.58-7.04 149.85-6.77 150.39-6.45L150.39-6.45Q153.51-6.77 156.41-7.36 159.31-7.95 162.42-8.59L162.42-8.59Q163.6-10.31 160.7-11.01 157.8-11.71 156.62-11.39ZM168.87-71.33L168.87-71.33Q169.3-72.08 169.89-72.03 170.48-71.97 171.02-71.76L171.02-71.76Q171.88-71.44 172.95-71.44 174.02-71.44 175.1-71.11L175.1-71.11Q176.49-71.22 177.51-70.47 178.54-69.72 179.18-68.11L179.18-68.11Q181.44-65.21 180.79-62.14 180.15-59.08 176.82-56.93L176.82-56.93Q174.78-55.97 173-55.05 171.23-54.14 169.3-53.28L169.3-53.28Q168.22-52.85 168.38-52.31 168.54-51.78 169.73-51.56L169.73-51.56Q171.77-51.56 174.24-49.47 176.71-47.37 177.25-44.9L177.25-44.9Q177.57-44.26 178.05-43.51 178.54-42.75 179.39-42.54L179.39-42.54Q181.01-42.86 182.46-43.24 183.91-43.61 185.63-44.69L185.63-44.69Q186.48-45.12 187.18-45.17 187.88-45.22 188.85-45.76L188.85-45.76Q190.46-45.65 191.53-45.87 192.61-46.08 194.43-46.62L194.43-46.62Q196.58-45.76 198.52-45.06 200.45-44.37 202.81-43.83L202.81-43.83Q204.75-42.54 204.64-40.87 204.53-39.21 202.17-38.89L202.17-38.89Q196.69-37.81 191.86-36.63 187.02-35.45 181.54-33.95L181.54-33.95Q179.18-33.52 178.54-32.23 177.89-30.94 177.68-28.79L177.68-28.79Q176.92-24.92 176.12-21.32 175.31-17.72 173.59-13.54L173.59-13.54Q172.63-11.39 173.92-11.33 175.21-11.28 176.82-11.82L176.82-11.82Q178.11-12.57 178.86-12.73 179.61-12.89 180.68-12.68L180.68-12.68Q182.94-13.54 184.82-13.8 186.7-14.07 189.06-12.68L189.06-12.68Q191.64-12.14 193.68-10.74 195.72-9.35 197.66-6.45L197.66-6.45Q197.87-6.12 197.92-5.8 197.98-5.48 197.87-4.94L197.87-4.94Q196.69-4.4 196.1-3.54 195.51-2.69 194.43-1.93L194.43-1.93Q190.57-1.18 187.08-1.07 183.58-0.97 179.61-0.86L179.61-0.86Q179.18-1.07 178.91-0.81 178.64-0.54 178.32-0.43L178.32-0.43 176.17-0.21Q171.88-0.21 168.01 1.02 164.14 2.26 159.84 4.3L159.84 4.3Q155.22 5.91 151.14 5.26 147.06 4.62 142.87-0.64L142.87-0.64Q141.47-3.22 142.44-6.45 143.41-9.67 146.74-9.88L146.74-9.88 148.03-9.45Q152-10.63 155.49-13.8 158.98-16.97 160.06-21.05L160.06-21.05Q161.56-22.24 161.83-23.63 162.1-25.03 162.21-26.43L162.21-26.43Q161.88-27.5 161.46-27.66 161.03-27.82 160.06-27.5L160.06-27.5Q154.79-25.67 149.85-24.28 144.91-22.88 139.65-22.13L139.65-22.13Q135.46-21.59 132.88-22.72 130.3-23.85 126.97-27.5L126.97-27.5Q125.9-28.47 125.63-29.22 125.36-29.97 125.47-31.15L125.47-31.15Q126.87-32.98 129.07-33.62 131.27-34.27 132.99-32.87L132.99-32.87 136.43-31.15Q142.87-32.23 148.78-34.11 154.69-35.99 161.35-37.6L161.35-37.6Q162.64-38.24 162.64-38.83 162.64-39.42 161.99-40.39L161.99-40.39Q160.7-42.54 159.52-44.37 158.34-46.19 157.7-48.55L157.7-48.55Q157.59-49.31 157.1-49.58 156.62-49.84 156.19-49.84L156.19-49.84Q153.72-49.63 152.11-50.65 150.5-51.67 148.24-51.78L148.24-51.78Q146.09-52.53 145.72-54.52 145.34-56.5 146.52-58.22L146.52-58.22Q149.21-60.69 151.52-62.36 153.83-64.02 156.62-64.02L156.62-64.02Q159.63-64.56 163.44-66.17 167.26-67.78 168.87-71.33Z" transform="translate(-15.574433326721191, 72.03312683105469)"></path></g> <!----> <!----> <!----> <!----> <!----> <!----> <!----></g></g> <g data-gra="path-slogan" fill-rule="" class="tp-slogan iconsvg-slogansvg" fill="#E51714" transform="translate(-9.692314147949219,90.73207092285156)"><!----> <!----> <g transform="scale(1, 1)"><g transform="scale(5.599999999999997)"><path d="M8.09-7.29L8.09-7.29Q8.24-7.32 8.40-7.28Q8.55-7.24 8.74-7.13L8.74-7.13Q8.84-7.08 8.92-7.02Q9.01-6.96 9.14-6.84L9.14-6.84Q9.19-6.68 9.14-6.46Q9.09-6.23 9-6.05L9-6.05Q8.93-5.98 8.88-5.98Q8.82-5.99 8.77-6.02L8.77-6.02Q8.65-6.12 8.58-6.12Q8.51-6.12 8.44-6.16L8.44-6.16Q8.32-6.25 8.29-6.33Q8.25-6.41 8.20-6.49L8.20-6.49Q8.02-6.64 7.92-6.84Q7.83-7.03 7.88-7.17L7.88-7.17Q7.91-7.22 7.96-7.24Q8.02-7.25 8.09-7.29ZM6.23-7.50L6.23-7.50Q6.40-7.98 6.70-7.89Q7.01-7.80 7.05-7.38L7.05-7.38Q6.97-7.08 7.07-6.84Q7.17-6.61 7.27-6.28L7.27-6.28Q7.30-6.20 7.26-6.19Q7.22-6.19 7.15-6.23L7.15-6.23Q7.04-6.34 7.00-6.33Q6.96-6.32 6.94-6.21L6.94-6.21Q6.89-5.91 6.88-5.63Q6.88-5.36 6.82-5.02L6.82-5.02Q6.79-4.96 6.81-4.91Q6.84-4.86 6.94-4.85L6.94-4.85Q7.11-4.92 7.28-4.98Q7.44-5.04 7.64-5.13L7.64-5.13Q7.79-5.23 7.80-5.32Q7.82-5.41 7.71-5.53L7.71-5.53Q7.64-5.67 7.53-5.79Q7.42-5.91 7.41-6.05L7.41-6.05Q7.64-5.89 7.85-5.78Q8.05-5.67 8.30-5.51L8.30-5.51Q8.54-5.53 8.70-5.47Q8.85-5.40 9.12-5.18L9.12-5.18Q9.21-5.05 9.18-4.93Q9.15-4.82 9.05-4.69L9.05-4.69Q8.89-4.62 8.78-4.56Q8.67-4.50 8.53-4.36L8.53-4.36Q8.21-4.20 7.93-4.05Q7.64-3.90 7.31-3.75L7.31-3.75Q7.15-3.67 7.14-3.60Q7.13-3.53 7.22-3.38L7.22-3.38Q7.44-2.93 7.77-2.54Q8.10-2.14 8.58-1.71L8.58-1.71Q9.15-1.13 9.56-0.93Q9.97-0.73 10.55-0.54L10.55-0.54Q10.89-0.41 10.98-0.23Q11.07-0.05 11.06 0.26L11.06 0.26Q11.03 0.41 10.95 0.45Q10.88 0.49 10.76 0.49L10.76 0.49Q10.30 0.47 9.90 0.44Q9.50 0.41 9.07 0.35L9.07 0.35Q8.91 0.36 8.79 0.35Q8.68 0.33 8.53 0.23L8.53 0.23Q8.06-0.15 7.83-0.61Q7.61-1.07 7.29-1.52L7.29-1.52Q7.18-1.77 7.05-2.00Q6.91-2.23 6.68-2.44L6.68-2.44Q6.55-2.60 6.46-2.60Q6.38-2.60 6.35-2.41L6.35-2.41L6.12-1.55Q6.04-0.94 5.58-0.51Q5.12-0.08 4.52 0.16L4.52 0.16Q4.34 0.19 4.14 0.18Q3.94 0.16 3.73 0.16L3.73 0.16Q3.62 0.12 3.54 0.05Q3.47-0.02 3.38-0.02L3.38-0.02Q3.28 0.01 3.23 0.11Q3.18 0.20 3.14 0.30L3.14 0.30Q3.08 0.43 2.95 0.57Q2.82 0.70 2.67 0.68L2.67 0.68Q2.53 0.57 2.40 0.38Q2.27 0.19 2.25 0.05L2.25 0.05Q2.24-0.14 2.20-0.30Q2.16-0.47 2.11-0.66L2.11-0.66Q2.14-0.80 2.15-0.91Q2.16-1.03 2.16-1.20L2.16-1.20Q2.27-1.57 2.33-1.92Q2.38-2.26 2.32-2.65L2.32-2.65Q2.32-2.73 2.27-2.79Q2.23-2.85 2.16-2.77L2.16-2.77Q1.96-2.65 1.79-2.63Q1.63-2.60 1.45-2.74L1.45-2.74Q1.17-3 1.08-3.21Q1.00-3.41 1.01-3.66L1.01-3.66Q0.91-3.88 0.94-3.96Q0.96-4.04 1.15-4.24L1.15-4.24Q1.62-4.98 1.92-5.65Q2.23-6.32 2.65-7.08L2.65-7.08Q2.75-7.25 2.89-7.28Q3.04-7.31 3.16-7.20L3.16-7.20Q3.32-7.04 3.45-6.95Q3.59-6.86 3.66-6.61L3.66-6.61Q3.98-6.21 4.01-5.94Q4.03-5.67 3.73-5.20L3.73-5.20Q3.53-4.89 3.31-4.56Q3.09-4.24 2.98-3.89L2.98-3.89Q3.18-3.46 3.19-3.16Q3.21-2.87 3.19-2.44L3.19-2.44Q3.18-2.39 3.19-2.32Q3.21-2.25 3.28-2.25L3.28-2.25Q3.45-2.41 3.67-2.79Q3.90-3.16 3.98-2.98L3.98-2.98Q3.90-2.84 3.88-2.74Q3.86-2.65 3.84-2.48L3.84-2.48Q3.66-2.06 3.59-1.71Q3.53-1.35 3.54-0.87L3.54-0.87Q3.54-0.74 3.62-0.72Q3.69-0.70 3.80-0.73L3.80-0.73Q4.59-1.01 5.00-1.62Q5.40-2.23 5.51-2.95L5.51-2.95Q5.51-3.11 5.44-3.14Q5.38-3.18 5.27-3.19L5.27-3.19Q5.00-3.25 4.75-3.35Q4.50-3.46 4.22-3.61L4.22-3.61Q4.13-3.70 4.13-3.81Q4.13-3.91 4.24-3.94L4.24-3.94Q4.41-4.08 4.51-4.10Q4.62-4.13 4.80-4.13L4.80-4.13Q5.00-4.09 5.35-4.19Q5.70-4.29 5.81-4.52L5.81-4.52Q5.88-5.00 5.95-5.44Q6.02-5.88 6.09-6.38L6.09-6.38Q6.11-6.67 6.11-6.93Q6.12-7.20 6.23-7.50ZM19.22-1.15L19.34-1.17Q19.45-1.18 19.52-1.17Q19.59-1.16 19.71-1.10L19.71-1.10Q19.95-1.02 20.17-0.93Q20.39-0.84 20.65-0.77L20.65-0.77Q21.01-0.63 21.25-0.34Q21.48-0.05 21.54 0.30L21.54 0.30L21.68 1.01Q21.70 1.15 21.61 1.21Q21.52 1.27 21.38 1.22L21.38 1.22Q21 1.02 20.66 0.80Q20.32 0.59 20.02 0.21L20.02 0.21Q19.73-0.06 19.33-0.53Q18.93-1.01 19.22-1.15L19.22-1.15ZM17.70-3.19L17.67-3.28Q17.64-3.33 17.60-3.30Q17.57-3.28 17.51-3.26L17.51-3.26Q17.21-3.08 17.09-2.84Q16.97-2.60 16.99-2.34L16.99-2.34Q17.18-1.99 17.40-2.47Q17.63-2.95 17.70-3.19L17.70-3.19ZM19.59-4.05L19.50-4.03Q19.38-4.01 19.28-3.99Q19.17-3.97 19.08-3.89L19.08-3.89Q18.96-3.69 18.93-3.49Q18.89-3.28 18.84-3.05L18.84-3.05Q18.84-2.94 18.89-2.92Q18.94-2.91 19.03-2.95L19.03-2.95Q19.34-3.20 19.63-3.60Q19.92-4.00 19.59-4.05L19.59-4.05ZM16.57-7.85L16.57-7.85Q16.76-7.95 17.04-7.76Q17.32-7.58 17.39-7.29L17.39-7.29L17.39-7.05Q17.48-6.83 17.54-6.65Q17.59-6.47 17.60-6.21L17.60-6.21Q17.61-6.02 17.71-6.01Q17.80-6 17.95-6L17.95-6Q18.04-6.02 18.08-5.99Q18.12-5.95 18.07-5.84L18.07-5.84Q17.81-5.57 17.75-5.43Q17.68-5.29 17.67-4.97L17.67-4.97Q17.61-4.76 17.52-4.70Q17.43-4.64 17.25-4.73L17.25-4.73L16.76-5.09Q16.49-5.06 16.24-4.93Q15.98-4.80 15.70-4.66L15.70-4.66Q15.57-4.61 15.47-4.58Q15.36-4.55 15.23-4.57L15.23-4.57Q15.07-4.69 14.93-4.95Q14.79-5.21 14.81-5.39L14.81-5.39Q14.93-5.60 15.17-5.65Q15.41-5.70 15.61-5.58L15.61-5.58Q15.80-5.53 15.96-5.61Q16.13-5.70 16.05-5.91L16.05-5.91Q15.95-6.39 15.96-6.98Q15.97-7.58 16.57-7.85ZM19.10-6.26L19.10-6.26Q19.32-6.60 19.41-6.91Q19.50-7.23 19.62-7.57L19.62-7.57Q19.65-7.97 19.76-8.18Q19.88-8.39 20.34-8.46L20.34-8.46Q20.48-8.50 20.55-8.38Q20.61-8.26 20.63-8.11L20.63-8.11Q20.58-7.99 20.57-7.87Q20.55-7.75 20.55-7.59L20.55-7.59Q20.58-7.48 20.57-7.36Q20.55-7.24 20.63-7.13L20.63-7.13Q20.81-6.97 20.99-6.96Q21.16-6.94 21.38-6.87L21.38-6.87Q21.50-6.87 21.52-6.77Q21.54-6.68 21.45-6.54L21.45-6.54Q21.21-6.43 21-6.37Q20.79-6.30 20.55-6.21L20.55-6.21Q20.13-6.12 19.86-5.88Q19.59-5.64 19.34-5.20L19.34-5.20Q19.34-5.05 19.31-4.95Q19.28-4.84 19.24-4.66L19.24-4.66Q19.20-4.58 19.25-4.52Q19.30-4.46 19.41-4.50L19.41-4.50L19.85-4.57Q20.12-4.63 20.45-4.48Q20.78-4.32 20.81-3.96L20.81-3.96Q20.60-3.53 20.26-3.26Q19.91-3 19.52-2.74L19.52-2.74Q19.46-2.70 19.44-2.65Q19.42-2.60 19.52-2.58L19.52-2.58Q19.78-2.60 20.02-2.63Q20.26-2.65 20.53-2.79L20.53-2.79Q20.99-2.75 21.42-2.71Q21.84-2.67 22.34-2.60L22.34-2.60Q22.57-2.47 22.56-2.31Q22.55-2.14 22.31-2.11L22.31-2.11Q21.40-2.04 20.59-1.97Q19.78-1.90 18.87-1.76L18.87-1.76Q18.56-1.73 18.43-1.55Q18.29-1.37 18.19-1.10L18.19-1.10Q18.08-0.84 17.98-0.58Q17.88-0.32 17.70-0.05L17.70-0.05Q17.61 0.12 17.55 0.23Q17.48 0.35 17.32 0.47L17.32 0.47Q16.91 0.84 16.59 1.01Q16.27 1.18 15.87 1.27L15.87 1.27Q15.39 1.20 15.23 0.84Q15.08 0.48 15.56 0.26L15.56 0.26Q15.82 0.26 16.07 0.03Q16.32-0.20 16.48-0.47L16.48-0.47Q16.63-0.67 16.72-0.80Q16.80-0.94 16.85-1.13L16.85-1.13Q16.90-1.24 16.85-1.29Q16.79-1.34 16.71-1.29L16.71-1.29L16.66-1.29Q15.98-1.11 15.38-0.93Q14.78-0.74 14.11-0.45L14.11-0.45Q14.02-0.42 13.90-0.40Q13.79-0.39 13.71-0.40L13.71-0.40Q13.46-0.54 13.44-0.83Q13.41-1.11 13.62-1.29L13.62-1.29Q13.79-1.39 13.94-1.36Q14.09-1.32 14.27-1.29L14.27-1.29Q14.66-1.39 15-1.52Q15.34-1.65 15.75-1.76L15.75-1.76Q15.86-1.82 15.87-1.88Q15.88-1.93 15.84-2.04L15.84-2.04L15.75-2.53Q15.67-2.68 15.64-2.78Q15.62-2.88 15.75-3.02L15.75-3.02Q15.76-3.15 15.81-3.30Q15.87-3.46 15.98-3.52L15.98-3.52Q16.05-3.89 16.37-3.97Q16.69-4.05 16.97-4.13L16.97-4.13Q17.11-4.14 17.11-4.06Q17.11-3.98 17.02-3.87L17.02-3.87Q16.92-3.76 16.95-3.71Q16.98-3.66 17.09-3.68L17.09-3.68Q17.25-3.77 17.39-3.83Q17.53-3.88 17.70-3.91L17.70-3.91Q17.85-3.98 17.90-4.10Q17.95-4.22 17.95-4.34L17.95-4.34Q17.95-4.51 17.97-4.56Q17.99-4.62 18.09-4.76L18.09-4.76Q18.28-5.10 18.57-5.27Q18.87-5.44 18.91-5.79L18.91-5.79Q18.59-6.04 18.75-6.10Q18.91-6.16 19.10-6.26ZM32.65-1.83L32.65-1.83Q32.32-1.76 32.03-1.62Q31.75-1.49 31.41-1.34L31.41-1.34Q31.08-1.20 31.08-0.94Q31.09-0.68 31.05-0.42L31.05-0.42Q31.10-0.30 31.19-0.28Q31.28-0.25 31.36-0.26L31.36-0.26Q31.56-0.35 31.73-0.45Q31.90-0.54 32.11-0.68L32.11-0.68Q32.44-0.89 32.74-1.37Q33.04-1.84 32.65-1.83ZM27.77-2.13L27.77-2.13Q27.74-2.14 27.69-2.12Q27.64-2.10 27.59-2.06L27.59-2.06Q27.47-1.80 27.40-1.54Q27.34-1.28 27.28-1.01L27.28-1.01Q27.25-0.89 27.33-0.87Q27.41-0.84 27.52-0.89L27.52-0.89Q27.67-0.98 27.81-1.10Q27.95-1.21 28.10-1.36L28.10-1.36Q28.17-1.49 28.13-1.59Q28.09-1.69 27.94-1.76L27.94-1.76Q27.81-1.83 27.83-1.95Q27.84-2.06 27.77-2.13ZM28.24-3.30L28.24-3.30Q28.14-3.42 27.92-3.46Q27.70-3.49 27.59-3.33L27.59-3.33Q27.59-3.21 27.60-3.05Q27.62-2.88 27.70-2.74L27.70-2.74Q27.80-2.74 27.93-2.79Q28.05-2.85 28.15-2.98L28.15-2.98Q28.16-3.08 28.15-3.14Q28.15-3.20 28.24-3.30ZM28.50-4.34L28.50-4.34L28.41-4.31L27.54-3.96Q27.40-3.89 27.42-3.81Q27.43-3.73 27.56-3.70L27.56-3.70Q27.77-3.70 28.23-3.91Q28.69-4.11 28.50-4.34ZM32.84-4.57L32.84-4.57Q33.05-4.59 33.27-4.51Q33.49-4.42 33.68-4.22L33.68-4.22Q33.70-4.00 33.62-3.87Q33.54-3.74 33.42-3.49L33.42-3.49Q33.48-3.34 33.46-3.28Q33.45-3.22 33.28-3.12L33.28-3.12Q33.15-3.04 33.02-2.99Q32.89-2.95 32.77-2.91L32.77-2.91Q32.54-2.78 32.34-2.65Q32.14-2.52 31.90-2.41L31.90-2.41Q31.75-2.51 31.58-2.44Q31.42-2.37 31.27-2.25L31.27-2.25Q31.20-2.09 31.24-1.99Q31.29-1.89 31.50-1.95L31.50-1.95Q31.76-2.02 31.99-2.09Q32.23-2.17 32.51-2.32L32.51-2.32Q32.68-2.39 32.82-2.41Q32.95-2.44 33.14-2.39L33.14-2.39Q33.42-2.40 33.59-2.33Q33.75-2.25 34.08-1.95L34.08-1.95Q34.16-1.83 34.15-1.72Q34.14-1.62 34.10-1.50L34.10-1.50Q33.90-1.14 33.80-0.87Q33.69-0.61 33.89-0.19L33.89-0.19Q33.88 0.08 33.81 0.19Q33.74 0.29 33.42 0.30L33.42 0.30Q32.96 0.38 32.54 0.44Q32.11 0.50 31.64 0.63L31.64 0.63Q31.39 0.68 31.20 0.74Q31.00 0.81 30.77 1.01L30.77 1.01Q30.71 1.04 30.64 1.01Q30.57 0.98 30.54 0.89L30.54 0.89Q30.19 0.48 30.03 0.05Q29.87-0.38 30-0.82L30-0.82Q30.18-1.54 30.25-2.17Q30.33-2.80 30.56-3.52L30.56-3.52Q30.61-3.71 30.67-3.94Q30.73-4.17 30.89-4.36L30.89-4.36Q31.00-4.43 31.09-4.41Q31.18-4.38 31.31-4.43L31.31-4.43Q31.38-4.45 31.41-4.42Q31.44-4.39 31.41-4.31L31.41-4.31Q31.25-3.90 31.25-3.66Q31.25-3.42 31.31-3.02L31.31-3.02Q31.32-2.95 31.39-2.94Q31.46-2.92 31.52-2.98L31.52-2.98Q31.59-3.07 31.65-3.09Q31.70-3.11 31.80-3.12L31.80-3.12Q31.91-3.22 31.99-3.33Q32.07-3.43 32.25-3.56L32.25-3.56Q32.40-3.76 32.35-3.86Q32.30-3.95 32.09-4.05L32.09-4.05Q32.04-4.07 31.98-4.11Q31.92-4.15 31.92-4.20L31.92-4.20Q32.21-4.48 32.37-4.52Q32.53-4.56 32.84-4.57ZM27.68-5.34L27.68-5.34Q27.59-5.37 27.52-5.31Q27.45-5.25 27.40-5.16L27.40-5.16Q27.28-5.07 27.21-4.99Q27.14-4.90 27.14-4.80L27.14-4.80Q27.21-4.71 27.32-4.58Q27.43-4.45 27.54-4.38L27.54-4.38Q27.74-4.45 27.94-4.55Q28.14-4.65 28.36-4.78L28.36-4.78Q28.44-4.85 28.45-4.92Q28.46-4.99 28.43-5.09L28.43-5.09Q28.36-5.17 28.27-5.17Q28.17-5.17 28.10-5.18L28.10-5.18Q27.95-5.29 27.87-5.31Q27.80-5.34 27.68-5.34ZM27.28-7.80L27.28-7.85Q27.36-7.97 27.47-7.97Q27.59-7.98 27.70-7.92L27.70-7.92Q27.96-7.78 28.11-7.61Q28.27-7.44 28.43-7.17L28.43-7.17Q28.49-7.03 28.57-7.00Q28.65-6.96 28.78-6.96L28.78-6.96Q29.06-6.96 29.28-6.81Q29.50-6.66 29.79-6.40L29.79-6.40Q29.86-6.30 29.82-6.25Q29.79-6.19 29.70-6.14L29.70-6.14Q29.47-6.13 29.27-6.15Q29.06-6.16 28.85-6.28L28.85-6.28Q28.75-6.35 28.65-6.37Q28.55-6.39 28.43-6.38L28.43-6.38Q28.28-6.30 28.13-6.12Q27.98-5.93 27.89-5.79L27.89-5.79Q27.87-5.75 27.86-5.72Q27.86-5.70 27.89-5.65L27.89-5.65L28.17-5.70Q28.52-5.80 28.70-5.72Q28.88-5.64 29.16-5.30L29.16-5.30Q29.26-5.17 29.36-5.12Q29.46-5.07 29.58-5.23L29.58-5.23Q29.68-5.40 29.84-5.55Q29.99-5.70 30.02-5.88L30.02-5.88Q30.12-6.05 30.24-5.95Q30.36-5.86 30.40-5.72L30.40-5.72Q30.42-5.58 30.47-5.53Q30.52-5.48 30.70-5.53L30.70-5.53Q31.30-5.81 31.84-6.03Q32.38-6.25 33-6.45L33-6.45Q33.39-6.67 33.84-6.50Q34.29-6.33 34.71-5.95L34.71-5.95Q34.79-5.86 34.78-5.81Q34.76-5.75 34.66-5.70L34.66-5.70Q34.30-5.52 34.02-5.41Q33.74-5.30 33.42-5.20L33.42-5.20Q33.15-5.17 32.92-5.15Q32.68-5.13 32.41-5.06L32.41-5.06Q32.30-5.06 32.30-5.10Q32.30-5.14 32.37-5.18L32.37-5.18Q32.57-5.33 32.76-5.46Q32.95-5.59 33.14-5.79L33.14-5.79Q33.21-5.92 33.19-5.99Q33.16-6.06 33-6.07L33-6.07Q32.44-5.87 31.90-5.60Q31.37-5.32 30.77-4.80L30.77-4.80Q30.59-4.52 30.44-4.27Q30.29-4.01 30.09-3.70L30.09-3.70Q29.87-3.36 29.66-3.42Q29.45-3.47 29.25-3.75L29.25-3.75Q29.18-3.86 29.15-3.84Q29.12-3.83 29.09-3.73L29.09-3.73Q29.07-3.54 29.02-3.36Q28.96-3.19 28.99-2.98L28.99-2.98Q28.99-2.80 28.86-2.71Q28.73-2.61 28.57-2.53L28.57-2.53Q28.46-2.45 28.46-2.39Q28.45-2.33 28.57-2.32L28.57-2.32Q28.98-2.37 29.26-2.18Q29.54-1.99 29.79-1.55L29.79-1.55Q29.87-1.39 29.77-1.31Q29.67-1.23 29.51-1.22L29.51-1.22Q29.33-1.23 29.14-1.25Q28.96-1.28 28.78-1.22L28.78-1.22Q28.51-0.91 28.25-0.66Q28.00-0.40 27.68-0.12L27.68-0.12Q27.52-0.04 27.38 0.05Q27.25 0.14 27.09 0.30L27.09 0.30Q27 0.40 26.88 0.43Q26.77 0.47 26.65 0.47L26.65 0.47Q26.55 0.43 26.46 0.33Q26.37 0.22 26.27 0.12L26.27 0.12Q26.19-0.07 26.24-0.19Q26.29-0.32 26.32-0.49L26.32-0.49Q26.32-0.73 26.38-0.84Q26.45-0.96 26.72-1.17L26.72-1.17L26.88-1.48Q26.93-2.13 26.87-2.72Q26.80-3.32 26.65-3.98L26.65-3.98Q26.63-4.03 26.58-4.08Q26.54-4.14 26.51-4.13L26.51-4.13Q26.37-4.03 26.27-3.91Q26.17-3.79 26.04-3.63L26.04-3.63Q25.84-3.41 25.65-3.43Q25.45-3.46 25.36-3.70L25.36-3.70L25.27-4.08Q25.23-4.31 25.31-4.49Q25.38-4.68 25.45-4.90L25.45-4.90Q25.86-5.39 26.19-5.85Q26.52-6.32 26.84-6.84L26.84-6.84Q27.01-7.10 27.13-7.33Q27.25-7.56 27.28-7.80L27.28-7.80ZM31.10-8.16L31.10-8.16L31.31-8.25Q31.52-8.24 31.75-8.22Q31.98-8.20 32.20-8.09L32.20-8.09L32.84-7.36Q32.91-7.22 32.82-7.10Q32.73-6.98 32.58-6.89L32.58-6.89Q32.48-6.86 32.40-6.86Q32.31-6.86 32.23-6.84L32.23-6.84Q32.00-6.79 31.82-6.73Q31.64-6.67 31.45-6.68L31.45-6.68Q31.27-6.71 31.25-6.78Q31.24-6.84 31.36-6.98L31.36-6.98Q31.64-7.42 31.26-7.59Q30.88-7.77 31.10-8.16Z" transform="translate(-0.9328125, 8.46905048076923)"></path></g></g></g></g></g></g></mask><defs v-gra="od"></defs></svg>